<svg width="862" height="500" viewBox="0 0 862 500" fill="none" xmlns="http://www.w3.org/2000/svg">
<g opacity="0.8">
<path d="M15 0.5H847C855.008 0.5 861.5 6.99187 861.5 15V499.5H0.5V15C0.5 6.99186 6.99187 0.5 15 0.5Z" fill="#171A1B"/>
<circle cx="28" cy="15" r="4" fill="#FF5F56"/>
<circle cx="44" cy="15" r="4" fill="#FFBD2E"/>
<circle cx="60" cy="15" r="4" fill="#27C93F"/>
<rect opacity="0.9" x="248" y="8" width="300" height="14" rx="5" fill="#202226"/>
<path d="M373.85 17.68C373.85 18.1667 373.79 18.5567 373.67 18.85C373.55 19.1433 373.373 19.38 373.14 19.56C372.913 19.7467 372.593 19.9333 372.18 20.12L371.91 19.45C372.17 19.33 372.37 19.21 372.51 19.09C372.65 18.9767 372.753 18.8133 372.82 18.6C372.893 18.3933 372.93 18.1067 372.93 17.74V12.73H373.85V17.68ZM373.39 10.2C373.583 10.2 373.74 10.26 373.86 10.38C373.98 10.5 374.04 10.65 374.04 10.83C374.04 11.01 373.98 11.16 373.86 11.28C373.74 11.3933 373.583 11.45 373.39 11.45C373.203 11.45 373.05 11.3933 372.93 11.28C372.81 11.16 372.75 11.01 372.75 10.83C372.75 10.65 372.81 10.5 372.93 10.38C373.05 10.26 373.203 10.2 373.39 10.2ZM377.583 12.61C378.323 12.61 378.896 12.8567 379.303 13.35C379.716 13.8433 379.923 14.5133 379.923 15.36C379.923 15.9067 379.829 16.39 379.643 16.81C379.456 17.2233 379.186 17.5467 378.833 17.78C378.479 18.0067 378.059 18.12 377.573 18.12C376.833 18.12 376.256 17.8733 375.843 17.38C375.429 16.8867 375.223 16.2167 375.223 15.37C375.223 14.8233 375.316 14.3433 375.503 13.93C375.689 13.51 375.959 13.1867 376.313 12.96C376.666 12.7267 377.089 12.61 377.583 12.61ZM377.583 13.35C376.669 13.35 376.213 14.0233 376.213 15.37C376.213 16.71 376.666 17.38 377.573 17.38C378.479 17.38 378.933 16.7067 378.933 15.36C378.933 14.02 378.483 13.35 377.583 13.35ZM383.773 12.61C384.253 12.61 384.626 12.7533 384.893 13.04C385.166 13.3267 385.303 13.72 385.303 14.22V18H384.383V14.35C384.383 13.9767 384.309 13.7133 384.163 13.56C384.023 13.4067 383.816 13.33 383.543 13.33C383.269 13.33 383.026 13.41 382.813 13.57C382.599 13.73 382.399 13.9567 382.213 14.25V18H381.293V10.62L382.213 10.52V13.46C382.626 12.8933 383.146 12.61 383.773 12.61ZM389.482 12.61C389.962 12.61 390.335 12.7533 390.602 13.04C390.875 13.3267 391.012 13.72 391.012 14.22V18H390.092V14.35C390.092 13.9767 390.022 13.7133 389.882 13.56C389.742 13.4067 389.535 13.33 389.262 13.33C388.982 13.33 388.735 13.41 388.522 13.57C388.309 13.73 388.109 13.96 387.922 14.26V18H387.002V12.73H387.792L387.872 13.51C388.059 13.23 388.289 13.01 388.562 12.85C388.842 12.69 389.149 12.61 389.482 12.61ZM396.791 10.61V18H395.981L395.891 17.27C395.718 17.5367 395.501 17.7467 395.241 17.9C394.981 18.0467 394.691 18.12 394.371 18.12C393.745 18.12 393.255 17.8733 392.901 17.38C392.555 16.8867 392.381 16.2233 392.381 15.39C392.381 14.85 392.465 14.37 392.631 13.95C392.798 13.53 393.038 13.2033 393.351 12.97C393.665 12.73 394.031 12.61 394.451 12.61C394.991 12.61 395.465 12.8267 395.871 13.26V10.5L396.791 10.61ZM394.571 17.39C394.851 17.39 395.091 17.3267 395.291 17.2C395.491 17.0667 395.685 16.87 395.871 16.61V14.03C395.698 13.8033 395.511 13.6333 395.311 13.52C395.118 13.4 394.898 13.34 394.651 13.34C394.245 13.34 393.928 13.51 393.701 13.85C393.481 14.19 393.371 14.6967 393.371 15.37C393.371 16.05 393.475 16.5567 393.681 16.89C393.888 17.2233 394.185 17.39 394.571 17.39ZM400.518 12.61C401.258 12.61 401.831 12.8567 402.238 13.35C402.651 13.8433 402.858 14.5133 402.858 15.36C402.858 15.9067 402.765 16.39 402.578 16.81C402.391 17.2233 402.121 17.5467 401.768 17.78C401.415 18.0067 400.995 18.12 400.508 18.12C399.768 18.12 399.191 17.8733 398.778 17.38C398.365 16.8867 398.158 16.2167 398.158 15.37C398.158 14.8233 398.251 14.3433 398.438 13.93C398.625 13.51 398.895 13.1867 399.248 12.96C399.601 12.7267 400.025 12.61 400.518 12.61ZM400.518 13.35C399.605 13.35 399.148 14.0233 399.148 15.37C399.148 16.71 399.601 17.38 400.508 17.38C401.415 17.38 401.868 16.7067 401.868 15.36C401.868 14.02 401.418 13.35 400.518 13.35ZM408.208 15.21C408.208 15.3633 408.201 15.52 408.188 15.68H404.828C404.868 16.26 405.014 16.6867 405.268 16.96C405.521 17.2333 405.848 17.37 406.248 17.37C406.501 17.37 406.734 17.3333 406.948 17.26C407.161 17.1867 407.384 17.07 407.618 16.91L408.018 17.46C407.458 17.9 406.844 18.12 406.178 18.12C405.444 18.12 404.871 17.88 404.458 17.4C404.051 16.92 403.848 16.26 403.848 15.42C403.848 14.8733 403.934 14.39 404.108 13.97C404.288 13.5433 404.541 13.21 404.868 12.97C405.201 12.73 405.591 12.61 406.038 12.61C406.738 12.61 407.274 12.84 407.648 13.3C408.021 13.76 408.208 14.3967 408.208 15.21ZM407.298 14.94C407.298 14.42 407.194 14.0233 406.988 13.75C406.781 13.4767 406.471 13.34 406.058 13.34C405.304 13.34 404.894 13.8933 404.828 15H407.298V14.94ZM409.669 16.73C409.869 16.73 410.036 16.7967 410.169 16.93C410.303 17.0633 410.369 17.2267 410.369 17.42C410.369 17.6133 410.303 17.78 410.169 17.92C410.036 18.0533 409.869 18.12 409.669 18.12C409.476 18.12 409.313 18.0533 409.179 17.92C409.046 17.78 408.979 17.6133 408.979 17.42C408.979 17.2267 409.046 17.0633 409.179 16.93C409.313 16.7967 409.476 16.73 409.669 16.73ZM413.504 12.61C413.817 12.61 414.104 12.6567 414.364 12.75C414.624 12.8367 414.874 12.98 415.114 13.18L414.674 13.76C414.487 13.6267 414.304 13.53 414.124 13.47C413.951 13.4033 413.757 13.37 413.544 13.37C413.117 13.37 412.784 13.54 412.544 13.88C412.311 14.22 412.194 14.7233 412.194 15.39C412.194 16.0567 412.311 16.55 412.544 16.87C412.777 17.1833 413.111 17.34 413.544 17.34C413.751 17.34 413.941 17.31 414.114 17.25C414.287 17.1833 414.481 17.08 414.694 16.94L415.114 17.54C414.634 17.9267 414.097 18.12 413.504 18.12C412.791 18.12 412.227 17.88 411.814 17.4C411.407 16.92 411.204 16.2567 411.204 15.41C411.204 14.85 411.297 14.36 411.484 13.94C411.671 13.52 411.934 13.1933 412.274 12.96C412.621 12.7267 413.031 12.61 413.504 12.61ZM417.994 12.61C418.734 12.61 419.307 12.8567 419.714 13.35C420.127 13.8433 420.334 14.5133 420.334 15.36C420.334 15.9067 420.241 16.39 420.054 16.81C419.867 17.2233 419.597 17.5467 419.244 17.78C418.891 18.0067 418.471 18.12 417.984 18.12C417.244 18.12 416.667 17.8733 416.254 17.38C415.841 16.8867 415.634 16.2167 415.634 15.37C415.634 14.8233 415.727 14.3433 415.914 13.93C416.101 13.51 416.371 13.1867 416.724 12.96C417.077 12.7267 417.501 12.61 417.994 12.61ZM417.994 13.35C417.081 13.35 416.624 14.0233 416.624 15.37C416.624 16.71 417.077 17.38 417.984 17.38C418.891 17.38 419.344 16.7067 419.344 15.36C419.344 14.02 418.894 13.35 417.994 13.35ZM426.994 12.61C427.427 12.61 427.774 12.7567 428.034 13.05C428.294 13.3367 428.424 13.7267 428.424 14.22V18H427.504V14.35C427.504 13.67 427.257 13.33 426.764 13.33C426.504 13.33 426.284 13.4067 426.104 13.56C425.924 13.7067 425.731 13.94 425.524 14.26V18H424.604V14.35C424.604 13.67 424.357 13.33 423.864 13.33C423.597 13.33 423.374 13.4067 423.194 13.56C423.014 13.7133 422.824 13.9467 422.624 14.26V18H421.704V12.73H422.494L422.574 13.5C422.967 12.9067 423.474 12.61 424.094 12.61C424.421 12.61 424.697 12.6933 424.924 12.86C425.157 13.0267 425.324 13.26 425.424 13.56C425.631 13.2533 425.857 13.02 426.104 12.86C426.357 12.6933 426.654 12.61 426.994 12.61Z" fill="white"/>
<path d="M107.904 141.968C108.224 141.968 108.491 142.075 108.704 142.288C108.917 142.501 109.024 142.763 109.024 143.072C109.024 143.381 108.917 143.648 108.704 143.872C108.491 144.085 108.224 144.192 107.904 144.192C107.595 144.192 107.333 144.085 107.12 143.872C106.907 143.648 106.8 143.381 106.8 143.072C106.8 142.763 106.907 142.501 107.12 142.288C107.333 142.075 107.595 141.968 107.904 141.968ZM113.924 132.784C114.66 132.784 115.289 132.891 115.812 133.104C116.334 133.307 116.841 133.627 117.332 134.064L116.5 134.992C116.084 134.661 115.673 134.421 115.268 134.272C114.873 134.112 114.446 134.032 113.988 134.032C113.412 134.032 112.937 134.165 112.564 134.432C112.19 134.699 112.004 135.088 112.004 135.6C112.004 135.92 112.068 136.192 112.196 136.416C112.324 136.629 112.558 136.827 112.9 137.008C113.252 137.189 113.758 137.381 114.42 137.584C115.113 137.797 115.689 138.027 116.148 138.272C116.606 138.517 116.974 138.859 117.252 139.296C117.54 139.723 117.684 140.267 117.684 140.928C117.684 141.568 117.524 142.133 117.204 142.624C116.894 143.115 116.441 143.499 115.844 143.776C115.257 144.053 114.558 144.192 113.748 144.192C112.222 144.192 110.974 143.717 110.004 142.768L110.836 141.84C111.284 142.203 111.737 142.48 112.196 142.672C112.654 142.853 113.166 142.944 113.732 142.944C114.414 142.944 114.98 142.779 115.428 142.448C115.876 142.107 116.1 141.616 116.1 140.976C116.1 140.613 116.03 140.315 115.892 140.08C115.753 139.835 115.513 139.616 115.172 139.424C114.841 139.232 114.356 139.04 113.716 138.848C112.585 138.507 111.758 138.096 111.236 137.616C110.713 137.136 110.452 136.485 110.452 135.664C110.452 135.109 110.596 134.613 110.884 134.176C111.182 133.739 111.593 133.397 112.116 133.152C112.649 132.907 113.252 132.784 113.924 132.784ZM122.771 135.376C123.955 135.376 124.872 135.771 125.523 136.56C126.184 137.349 126.515 138.421 126.515 139.776C126.515 140.651 126.365 141.424 126.067 142.096C125.768 142.757 125.336 143.275 124.771 143.648C124.205 144.011 123.533 144.192 122.755 144.192C121.571 144.192 120.648 143.797 119.987 143.008C119.325 142.219 118.995 141.147 118.995 139.792C118.995 138.917 119.144 138.149 119.443 137.488C119.741 136.816 120.173 136.299 120.739 135.936C121.304 135.563 121.981 135.376 122.771 135.376ZM122.771 136.56C121.309 136.56 120.579 137.637 120.579 139.792C120.579 141.936 121.304 143.008 122.755 143.008C124.205 143.008 124.931 141.931 124.931 139.776C124.931 137.632 124.211 136.56 122.771 136.56ZM132.562 135.376C133.522 135.376 134.285 135.765 134.85 136.544C135.416 137.312 135.698 138.389 135.698 139.776C135.698 140.651 135.565 141.424 135.298 142.096C135.032 142.757 134.648 143.275 134.146 143.648C133.645 144.011 133.058 144.192 132.386 144.192C131.501 144.192 130.754 143.819 130.146 143.072L130.002 144H128.706V132.176L130.178 132V136.624C130.786 135.792 131.581 135.376 132.562 135.376ZM132.034 143.024C132.685 143.024 133.192 142.763 133.554 142.24C133.928 141.707 134.114 140.885 134.114 139.776C134.114 138.635 133.944 137.813 133.602 137.312C133.261 136.8 132.776 136.544 132.146 136.544C131.4 136.544 130.744 136.981 130.178 137.856V141.888C130.402 142.24 130.674 142.517 130.994 142.72C131.325 142.923 131.672 143.024 132.034 143.024ZM141.63 135.376C141.929 135.376 142.206 135.408 142.462 135.472L142.19 136.912C141.934 136.848 141.689 136.816 141.454 136.816C140.932 136.816 140.51 137.008 140.19 137.392C139.87 137.776 139.62 138.373 139.438 139.184V144H137.966V135.568H139.23L139.374 137.28C139.598 136.651 139.902 136.176 140.286 135.856C140.67 135.536 141.118 135.376 141.63 135.376ZM149.782 139.536C149.782 139.781 149.771 140.032 149.75 140.288H144.374C144.438 141.216 144.672 141.899 145.078 142.336C145.483 142.773 146.006 142.992 146.646 142.992C147.051 142.992 147.424 142.933 147.766 142.816C148.107 142.699 148.464 142.512 148.838 142.256L149.478 143.136C148.582 143.84 147.6 144.192 146.534 144.192C145.36 144.192 144.443 143.808 143.782 143.04C143.131 142.272 142.806 141.216 142.806 139.872C142.806 138.997 142.944 138.224 143.222 137.552C143.51 136.869 143.915 136.336 144.438 135.952C144.971 135.568 145.595 135.376 146.31 135.376C147.43 135.376 148.288 135.744 148.886 136.48C149.483 137.216 149.782 138.235 149.782 139.536ZM148.326 139.104C148.326 138.272 148.16 137.637 147.83 137.2C147.499 136.763 147.003 136.544 146.342 136.544C145.136 136.544 144.48 137.429 144.374 139.2H148.326V139.104ZM161.829 144H160.357L159.973 139.024C159.813 137.072 159.722 135.573 159.701 134.528L157.317 142.752H155.893L153.381 134.512C153.381 135.845 153.311 137.387 153.173 139.136L152.805 144H151.365L152.277 132.976H154.325L156.645 140.992L158.853 132.976H160.917L161.829 144ZM165.578 135.568V144H164.106V135.568H165.578ZM164.826 131.52C165.135 131.52 165.386 131.616 165.578 131.808C165.77 132 165.866 132.24 165.866 132.528C165.866 132.816 165.77 133.056 165.578 133.248C165.386 133.429 165.135 133.52 164.826 133.52C164.527 133.52 164.282 133.429 164.09 133.248C163.898 133.056 163.802 132.816 163.802 132.528C163.802 132.24 163.898 132 164.09 131.808C164.282 131.616 164.527 131.52 164.826 131.52ZM176.845 135.376C177.539 135.376 178.093 135.611 178.509 136.08C178.925 136.539 179.133 137.163 179.133 137.952V144H177.661V138.16C177.661 137.072 177.267 136.528 176.477 136.528C176.061 136.528 175.709 136.651 175.421 136.896C175.133 137.131 174.824 137.504 174.493 138.016V144H173.021V138.16C173.021 137.072 172.627 136.528 171.837 136.528C171.411 136.528 171.053 136.651 170.765 136.896C170.477 137.141 170.173 137.515 169.853 138.016V144H168.381V135.568H169.645L169.773 136.8C170.403 135.851 171.213 135.376 172.205 135.376C172.728 135.376 173.171 135.509 173.533 135.776C173.907 136.043 174.173 136.416 174.333 136.896C174.664 136.405 175.027 136.032 175.421 135.776C175.827 135.509 176.301 135.376 176.845 135.376Z" fill="#7000FF"/>
<path d="M188.766 131.76C188.222 131.76 187.833 131.845 187.598 132.016C187.364 132.176 187.246 132.453 187.246 132.848V136.672C187.246 137.216 187.15 137.611 186.958 137.856C186.766 138.091 186.462 138.277 186.046 138.416C186.473 138.565 186.777 138.752 186.958 138.976C187.15 139.2 187.246 139.584 187.246 140.128V143.952C187.246 144.347 187.364 144.624 187.598 144.784C187.833 144.955 188.222 145.04 188.766 145.04V146.176C187.7 146.176 186.948 145.989 186.51 145.616C186.073 145.253 185.854 144.645 185.854 143.792V140.24C185.854 139.792 185.769 139.477 185.598 139.296C185.438 139.115 185.15 139.024 184.734 139.024V137.808C185.15 137.808 185.438 137.712 185.598 137.52C185.769 137.328 185.854 137.008 185.854 136.56V133.008C185.854 132.155 186.073 131.547 186.51 131.184C186.948 130.811 187.7 130.624 188.766 130.624V131.76ZM205.439 168.976C207.103 168.976 208.436 169.365 209.439 170.144C210.452 170.912 210.959 172.341 210.959 174.432C210.959 176.469 210.452 177.909 209.439 178.752C208.436 179.584 207.215 180 205.775 180H203.135V168.976H205.439ZM204.655 170.192V178.8H205.887C206.911 178.8 207.743 178.485 208.383 177.856C209.023 177.227 209.343 176.085 209.343 174.432C209.343 173.269 209.178 172.379 208.847 171.76C208.516 171.131 208.095 170.715 207.583 170.512C207.071 170.299 206.468 170.192 205.775 170.192H204.655ZM219.48 175.536C219.48 175.781 219.469 176.032 219.448 176.288H214.072C214.136 177.216 214.371 177.899 214.776 178.336C215.181 178.773 215.704 178.992 216.344 178.992C216.749 178.992 217.123 178.933 217.464 178.816C217.805 178.699 218.163 178.512 218.536 178.256L219.176 179.136C218.28 179.84 217.299 180.192 216.232 180.192C215.059 180.192 214.141 179.808 213.48 179.04C212.829 178.272 212.504 177.216 212.504 175.872C212.504 174.997 212.643 174.224 212.92 173.552C213.208 172.869 213.613 172.336 214.136 171.952C214.669 171.568 215.293 171.376 216.008 171.376C217.128 171.376 217.987 171.744 218.584 172.48C219.181 173.216 219.48 174.235 219.48 175.536ZM218.024 175.104C218.024 174.272 217.859 173.637 217.528 173.2C217.197 172.763 216.701 172.544 216.04 172.544C214.835 172.544 214.179 173.429 214.072 175.2H218.024V175.104ZM227.72 171.568L224.856 180H223.08L220.168 171.568H221.768L223.976 178.688L226.168 171.568H227.72ZM235.469 175.536C235.469 175.781 235.458 176.032 235.437 176.288H230.061C230.125 177.216 230.359 177.899 230.765 178.336C231.17 178.773 231.693 178.992 232.333 178.992C232.738 178.992 233.111 178.933 233.453 178.816C233.794 178.699 234.151 178.512 234.525 178.256L235.165 179.136C234.269 179.84 233.287 180.192 232.221 180.192C231.047 180.192 230.13 179.808 229.469 179.04C228.818 178.272 228.493 177.216 228.493 175.872C228.493 174.997 228.631 174.224 228.909 173.552C229.197 172.869 229.602 172.336 230.125 171.952C230.658 171.568 231.282 171.376 231.997 171.376C233.117 171.376 233.975 171.744 234.573 172.48C235.17 173.216 235.469 174.235 235.469 175.536ZM234.013 175.104C234.013 174.272 233.847 173.637 233.517 173.2C233.186 172.763 232.69 172.544 232.029 172.544C230.823 172.544 230.167 173.429 230.061 175.2H234.013V175.104ZM239.259 180.192C238.715 180.192 238.283 180.032 237.963 179.712C237.654 179.381 237.499 178.923 237.499 178.336V168.176L238.971 168V178.304C238.971 178.539 239.009 178.709 239.083 178.816C239.169 178.923 239.307 178.976 239.499 178.976C239.702 178.976 239.883 178.944 240.043 178.88L240.427 179.904C240.075 180.096 239.686 180.192 239.259 180.192ZM245.117 171.376C246.301 171.376 247.218 171.771 247.869 172.56C248.53 173.349 248.861 174.421 248.861 175.776C248.861 176.651 248.711 177.424 248.413 178.096C248.114 178.757 247.682 179.275 247.117 179.648C246.551 180.011 245.879 180.192 245.101 180.192C243.917 180.192 242.994 179.797 242.333 179.008C241.671 178.219 241.341 177.147 241.341 175.792C241.341 174.917 241.49 174.149 241.789 173.488C242.087 172.816 242.519 172.299 243.085 171.936C243.65 171.563 244.327 171.376 245.117 171.376ZM245.117 172.56C243.655 172.56 242.925 173.637 242.925 175.792C242.925 177.936 243.65 179.008 245.101 179.008C246.551 179.008 247.277 177.931 247.277 175.776C247.277 173.632 246.557 172.56 245.117 172.56ZM254.925 171.376C256.002 171.376 256.791 171.76 257.293 172.528C257.794 173.296 258.045 174.379 258.045 175.776C258.045 177.099 257.757 178.165 257.181 178.976C256.605 179.787 255.789 180.192 254.733 180.192C253.794 180.192 253.058 179.872 252.525 179.232V183.232L251.053 183.408V171.568H252.317L252.429 172.704C252.738 172.277 253.111 171.952 253.549 171.728C253.986 171.493 254.445 171.376 254.925 171.376ZM254.381 178.992C255.767 178.992 256.461 177.92 256.461 175.776C256.461 173.621 255.826 172.544 254.557 172.544C254.141 172.544 253.762 172.667 253.421 172.912C253.079 173.157 252.781 173.472 252.525 173.856V177.968C252.738 178.299 253.005 178.555 253.325 178.736C253.645 178.907 253.997 178.992 254.381 178.992ZM266.68 175.536C266.68 175.781 266.67 176.032 266.648 176.288H261.272C261.336 177.216 261.571 177.899 261.976 178.336C262.382 178.773 262.904 178.992 263.544 178.992C263.95 178.992 264.323 178.933 264.664 178.816C265.006 178.699 265.363 178.512 265.736 178.256L266.376 179.136C265.48 179.84 264.499 180.192 263.432 180.192C262.259 180.192 261.342 179.808 260.68 179.04C260.03 178.272 259.704 177.216 259.704 175.872C259.704 174.997 259.843 174.224 260.12 173.552C260.408 172.869 260.814 172.336 261.336 171.952C261.87 171.568 262.494 171.376 263.208 171.376C264.328 171.376 265.187 171.744 265.784 172.48C266.382 173.216 266.68 174.235 266.68 175.536ZM265.224 175.104C265.224 174.272 265.059 173.637 264.728 173.2C264.398 172.763 263.902 172.544 263.24 172.544C262.035 172.544 261.379 173.429 261.272 175.2H265.224V175.104ZM272.455 171.376C272.754 171.376 273.031 171.408 273.287 171.472L273.015 172.912C272.759 172.848 272.514 172.816 272.279 172.816C271.757 172.816 271.335 173.008 271.015 173.392C270.695 173.776 270.445 174.373 270.263 175.184V180H268.791V171.568H270.055L270.199 173.28C270.423 172.651 270.727 172.176 271.111 171.856C271.495 171.536 271.943 171.376 272.455 171.376ZM275.263 177.968C275.583 177.968 275.85 178.075 276.063 178.288C276.277 178.501 276.383 178.763 276.383 179.072C276.383 179.403 276.287 179.781 276.095 180.208L275.023 182.656H273.967L274.607 180C274.469 179.893 274.357 179.76 274.271 179.6C274.197 179.44 274.159 179.264 274.159 179.072C274.159 178.763 274.266 178.501 274.479 178.288C274.693 178.075 274.954 177.968 275.263 177.968ZM275.263 172.08C275.583 172.08 275.85 172.187 276.063 172.4C276.277 172.613 276.383 172.875 276.383 173.184C276.383 173.493 276.277 173.76 276.063 173.984C275.85 174.197 275.583 174.304 275.263 174.304C274.954 174.304 274.693 174.197 274.479 173.984C274.266 173.76 274.159 173.493 274.159 173.184C274.159 172.875 274.266 172.613 274.479 172.4C274.693 172.187 274.954 172.08 275.263 172.08ZM224.424 198V192.832H219.784V198H218.264V186.976H219.784V191.584H224.424V186.976H225.944V198H224.424ZM235.411 186.976L235.251 188.272H232.195V198H230.675V188.272H227.539V186.976H235.411ZM246.468 198H244.996L244.612 193.024C244.452 191.072 244.362 189.573 244.34 188.528L241.956 196.752H240.532L238.02 188.512C238.02 189.845 237.951 191.387 237.812 193.136L237.444 198H236.004L236.916 186.976H238.964L241.284 194.992L243.492 186.976H245.556L246.468 198ZM250.346 186.976V196.672H254.874L254.698 198H248.826V186.976H250.346ZM256.858 195.968C257.178 195.968 257.445 196.075 257.658 196.288C257.872 196.501 257.978 196.763 257.978 197.072C257.978 197.403 257.882 197.781 257.69 198.208L256.618 200.656H255.562L256.202 198C256.064 197.893 255.952 197.76 255.866 197.6C255.792 197.44 255.754 197.264 255.754 197.072C255.754 196.763 255.861 196.501 256.074 196.288C256.288 196.075 256.549 195.968 256.858 195.968ZM263.702 186.784C264.363 186.784 264.918 186.869 265.366 187.04C265.824 187.211 266.288 187.488 266.758 187.872L265.926 188.848C265.254 188.304 264.544 188.032 263.798 188.032C262.88 188.032 262.139 188.384 261.574 189.088C261.019 189.792 260.742 190.923 260.742 192.48C260.742 193.995 261.019 195.115 261.574 195.84C262.128 196.555 262.864 196.912 263.782 196.912C264.251 196.912 264.662 196.832 265.014 196.672C265.366 196.512 265.739 196.288 266.134 196L266.886 196.96C266.544 197.312 266.107 197.605 265.574 197.84C265.04 198.075 264.427 198.192 263.734 198.192C262.838 198.192 262.038 197.973 261.334 197.536C260.64 197.088 260.096 196.437 259.702 195.584C259.318 194.72 259.126 193.685 259.126 192.48C259.126 191.275 259.328 190.245 259.734 189.392C260.139 188.528 260.688 187.877 261.382 187.44C262.075 187.003 262.848 186.784 263.702 186.784ZM271.123 186.784C271.859 186.784 272.488 186.891 273.011 187.104C273.533 187.307 274.04 187.627 274.531 188.064L273.699 188.992C273.283 188.661 272.872 188.421 272.467 188.272C272.072 188.112 271.645 188.032 271.187 188.032C270.611 188.032 270.136 188.165 269.763 188.432C269.389 188.699 269.203 189.088 269.203 189.6C269.203 189.92 269.267 190.192 269.395 190.416C269.523 190.629 269.757 190.827 270.099 191.008C270.451 191.189 270.957 191.381 271.619 191.584C272.312 191.797 272.888 192.027 273.347 192.272C273.805 192.517 274.173 192.859 274.451 193.296C274.739 193.723 274.883 194.267 274.883 194.928C274.883 195.568 274.723 196.133 274.403 196.624C274.093 197.115 273.64 197.499 273.043 197.776C272.456 198.053 271.757 198.192 270.947 198.192C269.421 198.192 268.173 197.717 267.203 196.768L268.035 195.84C268.483 196.203 268.936 196.48 269.395 196.672C269.853 196.853 270.365 196.944 270.931 196.944C271.613 196.944 272.179 196.779 272.627 196.448C273.075 196.107 273.299 195.616 273.299 194.976C273.299 194.613 273.229 194.315 273.091 194.08C272.952 193.835 272.712 193.616 272.371 193.424C272.04 193.232 271.555 193.04 270.915 192.848C269.784 192.507 268.957 192.096 268.435 191.616C267.912 191.136 267.651 190.485 267.651 189.664C267.651 189.109 267.795 188.613 268.083 188.176C268.381 187.739 268.792 187.397 269.315 187.152C269.848 186.907 270.451 186.784 271.123 186.784ZM279.414 186.784C280.15 186.784 280.779 186.891 281.302 187.104C281.824 187.307 282.331 187.627 282.822 188.064L281.99 188.992C281.574 188.661 281.163 188.421 280.758 188.272C280.363 188.112 279.936 188.032 279.478 188.032C278.902 188.032 278.427 188.165 278.054 188.432C277.68 188.699 277.494 189.088 277.494 189.6C277.494 189.92 277.558 190.192 277.686 190.416C277.814 190.629 278.048 190.827 278.39 191.008C278.742 191.189 279.248 191.381 279.91 191.584C280.603 191.797 281.179 192.027 281.638 192.272C282.096 192.517 282.464 192.859 282.742 193.296C283.03 193.723 283.174 194.267 283.174 194.928C283.174 195.568 283.014 196.133 282.694 196.624C282.384 197.115 281.931 197.499 281.334 197.776C280.747 198.053 280.048 198.192 279.238 198.192C277.712 198.192 276.464 197.717 275.494 196.768L276.326 195.84C276.774 196.203 277.227 196.48 277.686 196.672C278.144 196.853 278.656 196.944 279.222 196.944C279.904 196.944 280.47 196.779 280.918 196.448C281.366 196.107 281.59 195.616 281.59 194.976C281.59 194.613 281.52 194.315 281.382 194.08C281.243 193.835 281.003 193.616 280.662 193.424C280.331 193.232 279.846 193.04 279.206 192.848C278.075 192.507 277.248 192.096 276.726 191.616C276.203 191.136 275.942 190.485 275.942 189.664C275.942 189.109 276.086 188.613 276.374 188.176C276.672 187.739 277.083 187.397 277.606 187.152C278.139 186.907 278.742 186.784 279.414 186.784ZM154.77 211.328H153.058V216H151.538V204.976H154.434C155.81 204.976 156.85 205.237 157.554 205.76C158.269 206.283 158.626 207.061 158.626 208.096C158.626 208.864 158.429 209.488 158.034 209.968C157.639 210.448 157.042 210.811 156.242 211.056L159.218 216H157.41L154.77 211.328ZM154.594 210.16C155.394 210.16 155.997 210 156.402 209.68C156.807 209.349 157.01 208.821 157.01 208.096C157.01 207.413 156.802 206.923 156.386 206.624C155.981 206.315 155.325 206.16 154.418 206.16H153.058V210.16H154.594ZM167.039 211.536C167.039 211.781 167.029 212.032 167.007 212.288H161.631C161.695 213.216 161.93 213.899 162.335 214.336C162.741 214.773 163.263 214.992 163.903 214.992C164.309 214.992 164.682 214.933 165.023 214.816C165.365 214.699 165.722 214.512 166.095 214.256L166.735 215.136C165.839 215.84 164.858 216.192 163.791 216.192C162.618 216.192 161.701 215.808 161.039 215.04C160.389 214.272 160.063 213.216 160.063 211.872C160.063 210.997 160.202 210.224 160.479 209.552C160.767 208.869 161.173 208.336 161.695 207.952C162.229 207.568 162.853 207.376 163.567 207.376C164.687 207.376 165.546 207.744 166.143 208.48C166.741 209.216 167.039 210.235 167.039 211.536ZM165.583 211.104C165.583 210.272 165.418 209.637 165.087 209.2C164.757 208.763 164.261 208.544 163.599 208.544C162.394 208.544 161.738 209.429 161.631 211.2H165.583V211.104ZM174.674 214.032C174.674 214.373 174.732 214.629 174.85 214.8C174.967 214.96 175.143 215.083 175.378 215.168L175.042 216.192C174.604 216.139 174.252 216.016 173.986 215.824C173.719 215.632 173.522 215.333 173.394 214.928C172.828 215.771 171.991 216.192 170.882 216.192C170.05 216.192 169.394 215.957 168.914 215.488C168.434 215.019 168.194 214.405 168.194 213.648C168.194 212.752 168.514 212.064 169.154 211.584C169.804 211.104 170.722 210.864 171.906 210.864H173.202V210.24C173.202 209.643 173.058 209.216 172.77 208.96C172.482 208.704 172.039 208.576 171.442 208.576C170.823 208.576 170.066 208.725 169.17 209.024L168.802 207.952C169.847 207.568 170.818 207.376 171.714 207.376C172.706 207.376 173.447 207.621 173.938 208.112C174.428 208.592 174.674 209.28 174.674 210.176V214.032ZM171.218 215.088C172.06 215.088 172.722 214.651 173.202 213.776V211.84H172.098C170.54 211.84 169.762 212.416 169.762 213.568C169.762 214.069 169.884 214.448 170.13 214.704C170.375 214.96 170.738 215.088 171.218 215.088ZM180.529 207.376C181.03 207.376 181.489 207.451 181.905 207.6C182.321 207.739 182.721 207.968 183.105 208.288L182.401 209.216C182.102 209.003 181.809 208.848 181.521 208.752C181.244 208.645 180.934 208.592 180.593 208.592C179.91 208.592 179.377 208.864 178.993 209.408C178.62 209.952 178.433 210.757 178.433 211.824C178.433 212.891 178.62 213.68 178.993 214.192C179.366 214.693 179.9 214.944 180.593 214.944C180.924 214.944 181.228 214.896 181.505 214.8C181.782 214.693 182.092 214.528 182.433 214.304L183.105 215.264C182.337 215.883 181.478 216.192 180.529 216.192C179.388 216.192 178.486 215.808 177.825 215.04C177.174 214.272 176.849 213.211 176.849 211.856C176.849 210.96 176.998 210.176 177.297 209.504C177.596 208.832 178.017 208.309 178.561 207.936C179.116 207.563 179.772 207.376 180.529 207.376ZM189.114 215.616C188.559 216 187.93 216.192 187.226 216.192C186.511 216.192 185.951 215.989 185.546 215.584C185.151 215.168 184.954 214.571 184.954 213.792V208.704H183.482V207.568H184.954V205.664L186.426 205.488V207.568H188.426L188.266 208.704H186.426V213.728C186.426 214.165 186.5 214.485 186.65 214.688C186.81 214.88 187.071 214.976 187.434 214.976C187.764 214.976 188.138 214.864 188.554 214.64L189.114 215.616ZM190.845 213.968C191.165 213.968 191.432 214.075 191.645 214.288C191.859 214.501 191.965 214.763 191.965 215.072C191.965 215.403 191.869 215.781 191.677 216.208L190.605 218.656H189.549L190.189 216C190.051 215.893 189.939 215.76 189.853 215.6C189.779 215.44 189.741 215.264 189.741 215.072C189.741 214.763 189.848 214.501 190.061 214.288C190.275 214.075 190.536 213.968 190.845 213.968ZM199.899 214.464C199.899 215.552 199.659 216.368 199.179 216.912C198.71 217.456 197.99 217.883 197.019 218.192L196.619 217.088C197.11 216.896 197.478 216.688 197.723 216.464C197.969 216.24 198.139 215.968 198.235 215.648C198.331 215.328 198.379 214.912 198.379 214.4V204.976H199.899V214.464ZM205.494 204.784C206.23 204.784 206.86 204.891 207.382 205.104C207.905 205.307 208.412 205.627 208.902 206.064L208.07 206.992C207.654 206.661 207.244 206.421 206.838 206.272C206.444 206.112 206.017 206.032 205.558 206.032C204.982 206.032 204.508 206.165 204.134 206.432C203.761 206.699 203.574 207.088 203.574 207.6C203.574 207.92 203.638 208.192 203.766 208.416C203.894 208.629 204.129 208.827 204.47 209.008C204.822 209.189 205.329 209.381 205.99 209.584C206.684 209.797 207.26 210.027 207.718 210.272C208.177 210.517 208.545 210.859 208.822 211.296C209.11 211.723 209.254 212.267 209.254 212.928C209.254 213.568 209.094 214.133 208.774 214.624C208.465 215.115 208.012 215.499 207.414 215.776C206.828 216.053 206.129 216.192 205.318 216.192C203.793 216.192 202.545 215.717 201.574 214.768L202.406 213.84C202.854 214.203 203.308 214.48 203.766 214.672C204.225 214.853 204.737 214.944 205.302 214.944C205.985 214.944 206.55 214.779 206.998 214.448C207.446 214.107 207.67 213.616 207.67 212.976C207.67 212.613 207.601 212.315 207.462 212.08C207.324 211.835 207.084 211.616 206.742 211.424C206.412 211.232 205.926 211.04 205.286 210.848C204.156 210.507 203.329 210.096 202.806 209.616C202.284 209.136 202.022 208.485 202.022 207.664C202.022 207.109 202.166 206.613 202.454 206.176C202.753 205.739 203.164 205.397 203.686 205.152C204.22 204.907 204.822 204.784 205.494 204.784ZM211.557 213.968C211.877 213.968 212.144 214.075 212.357 214.288C212.57 214.501 212.677 214.763 212.677 215.072C212.677 215.403 212.581 215.781 212.389 216.208L211.317 218.656H210.261L210.901 216C210.762 215.893 210.65 215.76 210.565 215.6C210.49 215.44 210.453 215.264 210.453 215.072C210.453 214.763 210.56 214.501 210.773 214.288C210.986 214.075 211.248 213.968 211.557 213.968ZM211.557 208.08C211.877 208.08 212.144 208.187 212.357 208.4C212.57 208.613 212.677 208.875 212.677 209.184C212.677 209.493 212.57 209.76 212.357 209.984C212.144 210.197 211.877 210.304 211.557 210.304C211.248 210.304 210.986 210.197 210.773 209.984C210.56 209.76 210.453 209.493 210.453 209.184C210.453 208.875 210.56 208.613 210.773 208.4C210.986 208.187 211.248 208.08 211.557 208.08ZM106.72 238.624C107.787 238.624 108.539 238.811 108.976 239.184C109.413 239.547 109.632 240.155 109.632 241.008V244.56C109.632 245.008 109.712 245.328 109.872 245.52C110.043 245.712 110.336 245.808 110.752 245.808V247.024C110.336 247.024 110.043 247.115 109.872 247.296C109.712 247.477 109.632 247.792 109.632 248.24V251.792C109.632 252.645 109.413 253.253 108.976 253.616C108.539 253.989 107.787 254.176 106.72 254.176V253.04C107.264 253.04 107.653 252.955 107.888 252.784C108.123 252.624 108.24 252.347 108.24 251.952V248.128C108.24 247.584 108.331 247.2 108.512 246.976C108.704 246.752 109.013 246.565 109.44 246.416C109.024 246.277 108.72 246.091 108.528 245.856C108.336 245.611 108.24 245.216 108.24 244.672V240.848C108.24 240.453 108.123 240.176 107.888 240.016C107.653 239.845 107.264 239.76 106.72 239.76V238.624Z" fill="white"/>
<path d="M134.462 168.976C135.828 168.976 136.884 169.264 137.63 169.84C138.377 170.405 138.75 171.253 138.75 172.384C138.75 173.589 138.361 174.485 137.582 175.072C136.804 175.659 135.769 175.952 134.478 175.952H133.086V180H131.566V168.976H134.462ZM134.414 174.752C135.3 174.752 135.972 174.581 136.43 174.24C136.9 173.899 137.134 173.285 137.134 172.4C137.134 171.611 136.9 171.04 136.43 170.688C135.972 170.336 135.31 170.16 134.446 170.16H133.086V174.752H134.414ZM143.895 171.376C144.193 171.376 144.471 171.408 144.727 171.472L144.455 172.912C144.199 172.848 143.953 172.816 143.719 172.816C143.196 172.816 142.775 173.008 142.455 173.392C142.135 173.776 141.884 174.373 141.703 175.184V180H140.231V171.568H141.495L141.639 173.28C141.863 172.651 142.167 172.176 142.551 171.856C142.935 171.536 143.383 171.376 143.895 171.376ZM148.846 171.376C150.03 171.376 150.947 171.771 151.598 172.56C152.259 173.349 152.59 174.421 152.59 175.776C152.59 176.651 152.441 177.424 152.142 178.096C151.843 178.757 151.411 179.275 150.846 179.648C150.281 180.011 149.609 180.192 148.83 180.192C147.646 180.192 146.723 179.797 146.062 179.008C145.401 178.219 145.07 177.147 145.07 175.792C145.07 174.917 145.219 174.149 145.518 173.488C145.817 172.816 146.249 172.299 146.814 171.936C147.379 171.563 148.057 171.376 148.846 171.376ZM148.846 172.56C147.385 172.56 146.654 173.637 146.654 175.792C146.654 177.936 147.379 179.008 148.83 179.008C150.281 179.008 151.006 177.931 151.006 175.776C151.006 173.632 150.286 172.56 148.846 172.56ZM157.678 168C158.126 168 158.531 168.048 158.894 168.144C159.267 168.24 159.641 168.384 160.014 168.576L159.502 169.6C158.947 169.333 158.355 169.2 157.726 169.2C157.161 169.2 156.771 169.301 156.558 169.504C156.345 169.707 156.238 170.021 156.238 170.448V171.568H160.942V180H159.47V172.704H156.238V180H154.766V172.704H153.422V171.568H154.766V170.464C154.766 169.717 155.006 169.12 155.486 168.672C155.966 168.224 156.697 168 157.678 168ZM166.033 171.376C166.609 171.376 167.126 171.456 167.585 171.616C168.044 171.776 168.481 172.016 168.897 172.336L168.273 173.264C167.889 173.019 167.521 172.837 167.169 172.72C166.828 172.603 166.465 172.544 166.081 172.544C165.601 172.544 165.222 172.645 164.945 172.848C164.668 173.04 164.529 173.307 164.529 173.648C164.529 173.989 164.657 174.256 164.913 174.448C165.18 174.64 165.654 174.827 166.337 175.008C167.276 175.243 167.974 175.563 168.433 175.968C168.902 176.373 169.137 176.928 169.137 177.632C169.137 178.464 168.812 179.099 168.161 179.536C167.521 179.973 166.737 180.192 165.809 180.192C164.529 180.192 163.468 179.824 162.625 179.088L163.409 178.192C164.124 178.736 164.913 179.008 165.777 179.008C166.332 179.008 166.769 178.896 167.089 178.672C167.42 178.437 167.585 178.123 167.585 177.728C167.585 177.44 167.526 177.211 167.409 177.04C167.292 176.859 167.089 176.704 166.801 176.576C166.513 176.437 166.092 176.293 165.537 176.144C164.641 175.909 163.99 175.595 163.585 175.2C163.19 174.805 162.993 174.304 162.993 173.696C162.993 173.259 163.121 172.864 163.377 172.512C163.644 172.149 164.006 171.872 164.465 171.68C164.934 171.477 165.457 171.376 166.033 171.376ZM173.106 171.376C173.682 171.376 174.199 171.456 174.658 171.616C175.116 171.776 175.554 172.016 175.97 172.336L175.346 173.264C174.962 173.019 174.594 172.837 174.242 172.72C173.9 172.603 173.538 172.544 173.154 172.544C172.674 172.544 172.295 172.645 172.018 172.848C171.74 173.04 171.602 173.307 171.602 173.648C171.602 173.989 171.73 174.256 171.986 174.448C172.252 174.64 172.727 174.827 173.41 175.008C174.348 175.243 175.047 175.563 175.506 175.968C175.975 176.373 176.21 176.928 176.21 177.632C176.21 178.464 175.884 179.099 175.234 179.536C174.594 179.973 173.81 180.192 172.882 180.192C171.602 180.192 170.54 179.824 169.698 179.088L170.482 178.192C171.196 178.736 171.986 179.008 172.85 179.008C173.404 179.008 173.842 178.896 174.162 178.672C174.492 178.437 174.658 178.123 174.658 177.728C174.658 177.44 174.599 177.211 174.482 177.04C174.364 176.859 174.162 176.704 173.874 176.576C173.586 176.437 173.164 176.293 172.61 176.144C171.714 175.909 171.063 175.595 170.658 175.2C170.263 174.805 170.066 174.304 170.066 173.696C170.066 173.259 170.194 172.864 170.45 172.512C170.716 172.149 171.079 171.872 171.538 171.68C172.007 171.477 172.53 171.376 173.106 171.376ZM183.57 178.032C183.57 178.373 183.629 178.629 183.746 178.8C183.863 178.96 184.039 179.083 184.274 179.168L183.938 180.192C183.501 180.139 183.149 180.016 182.882 179.824C182.615 179.632 182.418 179.333 182.29 178.928C181.725 179.771 180.887 180.192 179.778 180.192C178.946 180.192 178.29 179.957 177.81 179.488C177.33 179.019 177.09 178.405 177.09 177.648C177.09 176.752 177.41 176.064 178.05 175.584C178.701 175.104 179.618 174.864 180.802 174.864H182.098V174.24C182.098 173.643 181.954 173.216 181.666 172.96C181.378 172.704 180.935 172.576 180.338 172.576C179.719 172.576 178.962 172.725 178.066 173.024L177.698 171.952C178.743 171.568 179.714 171.376 180.61 171.376C181.602 171.376 182.343 171.621 182.834 172.112C183.325 172.592 183.57 173.28 183.57 174.176V178.032ZM180.114 179.088C180.957 179.088 181.618 178.651 182.098 177.776V175.84H180.994C179.437 175.84 178.658 176.416 178.658 177.568C178.658 178.069 178.781 178.448 179.026 178.704C179.271 178.96 179.634 179.088 180.114 179.088ZM181.474 169.504C181.271 169.504 181.085 169.467 180.914 169.392C180.754 169.317 180.573 169.211 180.37 169.072C180.21 168.955 180.071 168.869 179.954 168.816C179.847 168.763 179.735 168.736 179.618 168.736C179.447 168.736 179.298 168.795 179.17 168.912C179.042 169.029 178.909 169.216 178.77 169.472L177.874 169.024C178.077 168.597 178.322 168.256 178.61 168C178.909 167.744 179.245 167.616 179.618 167.616C179.842 167.616 180.034 167.659 180.194 167.744C180.354 167.819 180.535 167.925 180.738 168.064C180.77 168.085 180.834 168.128 180.93 168.192C181.037 168.256 181.133 168.304 181.218 168.336C181.303 168.368 181.389 168.384 181.474 168.384C181.634 168.384 181.778 168.331 181.906 168.224C182.034 168.107 182.173 167.925 182.322 167.68L183.218 168.128C183.015 168.576 182.765 168.917 182.466 169.152C182.167 169.387 181.837 169.504 181.474 169.504ZM189.521 171.376C190.705 171.376 191.622 171.771 192.273 172.56C192.934 173.349 193.265 174.421 193.265 175.776C193.265 176.651 193.116 177.424 192.817 178.096C192.518 178.757 192.086 179.275 191.521 179.648C190.956 180.011 190.284 180.192 189.505 180.192C188.321 180.192 187.398 179.797 186.737 179.008C186.076 178.219 185.745 177.147 185.745 175.792C185.745 174.917 185.894 174.149 186.193 173.488C186.492 172.816 186.924 172.299 187.489 171.936C188.054 171.563 188.732 171.376 189.521 171.376ZM189.521 172.56C188.06 172.56 187.329 173.637 187.329 175.792C187.329 177.936 188.054 179.008 189.505 179.008C190.956 179.008 191.681 177.931 191.681 175.776C191.681 173.632 190.961 172.56 189.521 172.56ZM195.841 177.968C196.161 177.968 196.428 178.075 196.641 178.288C196.854 178.501 196.961 178.763 196.961 179.072C196.961 179.381 196.854 179.648 196.641 179.872C196.428 180.085 196.161 180.192 195.841 180.192C195.532 180.192 195.27 180.085 195.057 179.872C194.844 179.648 194.737 179.381 194.737 179.072C194.737 178.763 194.844 178.501 195.057 178.288C195.27 178.075 195.532 177.968 195.841 177.968ZM195.841 172.08C196.161 172.08 196.428 172.187 196.641 172.4C196.854 172.613 196.961 172.875 196.961 173.184C196.961 173.493 196.854 173.76 196.641 173.984C196.428 174.197 196.161 174.304 195.841 174.304C195.532 174.304 195.27 174.197 195.057 173.984C194.844 173.76 194.737 173.493 194.737 173.184C194.737 172.875 194.844 172.613 195.057 172.4C195.27 172.187 195.532 172.08 195.841 172.08ZM133.086 186.976V196.672H137.614L137.438 198H131.566V186.976H133.086ZM140.687 189.568V198H139.215V189.568H140.687ZM139.935 185.52C140.244 185.52 140.495 185.616 140.687 185.808C140.879 186 140.975 186.24 140.975 186.528C140.975 186.816 140.879 187.056 140.687 187.248C140.495 187.429 140.244 187.52 139.935 187.52C139.636 187.52 139.391 187.429 139.199 187.248C139.007 187.056 138.911 186.816 138.911 186.528C138.911 186.24 139.007 186 139.199 185.808C139.391 185.616 139.636 185.52 139.935 185.52ZM147.459 189.376C148.227 189.376 148.824 189.605 149.251 190.064C149.688 190.523 149.907 191.152 149.907 191.952V198H148.435V192.16C148.435 191.563 148.323 191.141 148.099 190.896C147.875 190.651 147.544 190.528 147.107 190.528C146.659 190.528 146.264 190.656 145.923 190.912C145.581 191.168 145.261 191.536 144.963 192.016V198H143.491V189.568H144.755L144.883 190.816C145.181 190.368 145.549 190.016 145.987 189.76C146.435 189.504 146.925 189.376 147.459 189.376ZM159.426 189.952C159.106 190.059 158.754 190.128 158.37 190.16C157.986 190.192 157.516 190.208 156.962 190.208C157.954 190.656 158.45 191.365 158.45 192.336C158.45 193.179 158.162 193.867 157.586 194.4C157.01 194.933 156.226 195.2 155.234 195.2C154.85 195.2 154.492 195.147 154.162 195.04C154.034 195.125 153.932 195.243 153.858 195.392C153.783 195.531 153.746 195.675 153.746 195.824C153.746 196.283 154.114 196.512 154.85 196.512H156.194C156.759 196.512 157.26 196.613 157.698 196.816C158.135 197.019 158.471 197.296 158.706 197.648C158.951 198 159.074 198.4 159.074 198.848C159.074 199.669 158.738 200.299 158.066 200.736C157.394 201.184 156.412 201.408 155.122 201.408C154.215 201.408 153.495 201.312 152.962 201.12C152.439 200.939 152.066 200.661 151.842 200.288C151.618 199.915 151.506 199.435 151.506 198.848H152.834C152.834 199.189 152.898 199.456 153.026 199.648C153.154 199.851 153.383 200 153.714 200.096C154.044 200.203 154.514 200.256 155.122 200.256C156.007 200.256 156.636 200.144 157.01 199.92C157.394 199.707 157.586 199.381 157.586 198.944C157.586 198.549 157.436 198.251 157.138 198.048C156.839 197.845 156.423 197.744 155.89 197.744H154.562C153.847 197.744 153.303 197.595 152.93 197.296C152.567 196.987 152.386 196.603 152.386 196.144C152.386 195.867 152.466 195.6 152.626 195.344C152.786 195.088 153.015 194.859 153.314 194.656C152.823 194.4 152.46 194.085 152.226 193.712C152.002 193.328 151.89 192.864 151.89 192.32C151.89 191.755 152.028 191.248 152.306 190.8C152.594 190.352 152.983 190.005 153.474 189.76C153.975 189.504 154.53 189.376 155.138 189.376C155.799 189.387 156.354 189.365 156.802 189.312C157.25 189.248 157.618 189.168 157.906 189.072C158.204 188.965 158.567 188.816 158.994 188.624L159.426 189.952ZM155.138 190.432C154.583 190.432 154.151 190.608 153.842 190.96C153.543 191.301 153.394 191.755 153.394 192.32C153.394 192.896 153.548 193.36 153.858 193.712C154.167 194.053 154.604 194.224 155.17 194.224C155.746 194.224 156.183 194.059 156.482 193.728C156.791 193.387 156.946 192.912 156.946 192.304C156.946 191.056 156.343 190.432 155.138 190.432ZM166.814 198H165.55L165.438 196.688C165.118 197.211 164.75 197.595 164.334 197.84C163.918 198.075 163.411 198.192 162.814 198.192C162.078 198.192 161.502 197.968 161.086 197.52C160.67 197.072 160.462 196.437 160.462 195.616V189.568H161.934V195.456C161.934 196.032 162.035 196.443 162.238 196.688C162.441 196.923 162.771 197.04 163.23 197.04C164.051 197.04 164.755 196.555 165.342 195.584V189.568H166.814V198ZM175.294 196.032C175.294 196.373 175.353 196.629 175.47 196.8C175.588 196.96 175.764 197.083 175.998 197.168L175.662 198.192C175.225 198.139 174.873 198.016 174.606 197.824C174.34 197.632 174.142 197.333 174.014 196.928C173.449 197.771 172.612 198.192 171.502 198.192C170.67 198.192 170.014 197.957 169.534 197.488C169.054 197.019 168.814 196.405 168.814 195.648C168.814 194.752 169.134 194.064 169.774 193.584C170.425 193.104 171.342 192.864 172.526 192.864H173.822V192.24C173.822 191.643 173.678 191.216 173.39 190.96C173.102 190.704 172.66 190.576 172.062 190.576C171.444 190.576 170.686 190.725 169.79 191.024L169.422 189.952C170.468 189.568 171.438 189.376 172.334 189.376C173.326 189.376 174.068 189.621 174.558 190.112C175.049 190.592 175.294 191.28 175.294 192.176V196.032ZM171.838 197.088C172.681 197.088 173.342 196.651 173.822 195.776V193.84H172.718C171.161 193.84 170.382 194.416 170.382 195.568C170.382 196.069 170.505 196.448 170.75 196.704C170.996 196.96 171.358 197.088 171.838 197.088ZM184.721 189.952C184.401 190.059 184.049 190.128 183.665 190.16C183.281 190.192 182.812 190.208 182.257 190.208C183.249 190.656 183.745 191.365 183.745 192.336C183.745 193.179 183.457 193.867 182.881 194.4C182.305 194.933 181.521 195.2 180.529 195.2C180.145 195.2 179.788 195.147 179.457 195.04C179.329 195.125 179.228 195.243 179.153 195.392C179.079 195.531 179.041 195.675 179.041 195.824C179.041 196.283 179.409 196.512 180.145 196.512H181.489C182.055 196.512 182.556 196.613 182.993 196.816C183.431 197.019 183.767 197.296 184.001 197.648C184.247 198 184.369 198.4 184.369 198.848C184.369 199.669 184.033 200.299 183.361 200.736C182.689 201.184 181.708 201.408 180.417 201.408C179.511 201.408 178.791 201.312 178.257 201.12C177.735 200.939 177.361 200.661 177.137 200.288C176.913 199.915 176.801 199.435 176.801 198.848H178.129C178.129 199.189 178.193 199.456 178.321 199.648C178.449 199.851 178.679 200 179.009 200.096C179.34 200.203 179.809 200.256 180.417 200.256C181.303 200.256 181.932 200.144 182.305 199.92C182.689 199.707 182.881 199.381 182.881 198.944C182.881 198.549 182.732 198.251 182.433 198.048C182.135 197.845 181.719 197.744 181.185 197.744H179.857C179.143 197.744 178.599 197.595 178.225 197.296C177.863 196.987 177.681 196.603 177.681 196.144C177.681 195.867 177.761 195.6 177.921 195.344C178.081 195.088 178.311 194.859 178.609 194.656C178.119 194.4 177.756 194.085 177.521 193.712C177.297 193.328 177.185 192.864 177.185 192.32C177.185 191.755 177.324 191.248 177.601 190.8C177.889 190.352 178.279 190.005 178.769 189.76C179.271 189.504 179.825 189.376 180.433 189.376C181.095 189.387 181.649 189.365 182.097 189.312C182.545 189.248 182.913 189.168 183.201 189.072C183.5 188.965 183.863 188.816 184.289 188.624L184.721 189.952ZM180.433 190.432C179.879 190.432 179.447 190.608 179.137 190.96C178.839 191.301 178.689 191.755 178.689 192.32C178.689 192.896 178.844 193.36 179.153 193.712C179.463 194.053 179.9 194.224 180.465 194.224C181.041 194.224 181.479 194.059 181.777 193.728C182.087 193.387 182.241 192.912 182.241 192.304C182.241 191.056 181.639 190.432 180.433 190.432ZM192.112 193.536C192.112 193.781 192.101 194.032 192.08 194.288H186.704C186.768 195.216 187.002 195.899 187.408 196.336C187.813 196.773 188.336 196.992 188.976 196.992C189.381 196.992 189.754 196.933 190.096 196.816C190.437 196.699 190.794 196.512 191.168 196.256L191.808 197.136C190.912 197.84 189.93 198.192 188.864 198.192C187.69 198.192 186.773 197.808 186.112 197.04C185.461 196.272 185.136 195.216 185.136 193.872C185.136 192.997 185.274 192.224 185.552 191.552C185.84 190.869 186.245 190.336 186.768 189.952C187.301 189.568 187.925 189.376 188.64 189.376C189.76 189.376 190.618 189.744 191.216 190.48C191.813 191.216 192.112 192.235 192.112 193.536ZM190.656 193.104C190.656 192.272 190.49 191.637 190.16 191.2C189.829 190.763 189.333 190.544 188.672 190.544C187.466 190.544 186.81 191.429 186.704 193.2H190.656V193.104ZM198.19 189.376C198.958 189.376 199.556 189.605 199.982 190.064C200.42 190.523 200.638 191.152 200.638 191.952V198H199.166V192.16C199.166 191.563 199.054 191.141 198.83 190.896C198.606 190.651 198.276 190.528 197.838 190.528C197.39 190.528 196.996 190.656 196.654 190.912C196.313 191.168 195.993 191.536 195.694 192.016V198H194.222V189.568H195.486L195.614 190.816C195.913 190.368 196.281 190.016 196.718 189.76C197.166 189.504 197.657 189.376 198.19 189.376ZM205.646 189.376C206.222 189.376 206.739 189.456 207.198 189.616C207.656 189.776 208.094 190.016 208.51 190.336L207.886 191.264C207.502 191.019 207.134 190.837 206.782 190.72C206.44 190.603 206.078 190.544 205.694 190.544C205.214 190.544 204.835 190.645 204.558 190.848C204.28 191.04 204.142 191.307 204.142 191.648C204.142 191.989 204.27 192.256 204.526 192.448C204.792 192.64 205.267 192.827 205.95 193.008C206.888 193.243 207.587 193.563 208.046 193.968C208.515 194.373 208.75 194.928 208.75 195.632C208.75 196.464 208.424 197.099 207.774 197.536C207.134 197.973 206.35 198.192 205.422 198.192C204.142 198.192 203.08 197.824 202.238 197.088L203.022 196.192C203.736 196.736 204.526 197.008 205.39 197.008C205.944 197.008 206.382 196.896 206.702 196.672C207.032 196.437 207.198 196.123 207.198 195.728C207.198 195.44 207.139 195.211 207.022 195.04C206.904 194.859 206.702 194.704 206.414 194.576C206.126 194.437 205.704 194.293 205.15 194.144C204.254 193.909 203.603 193.595 203.198 193.2C202.803 192.805 202.606 192.304 202.606 191.696C202.606 191.259 202.734 190.864 202.99 190.512C203.256 190.149 203.619 189.872 204.078 189.68C204.547 189.477 205.07 189.376 205.646 189.376ZM210.97 195.968C211.29 195.968 211.557 196.075 211.77 196.288C211.984 196.501 212.09 196.763 212.09 197.072C212.09 197.381 211.984 197.648 211.77 197.872C211.557 198.085 211.29 198.192 210.97 198.192C210.661 198.192 210.4 198.085 210.186 197.872C209.973 197.648 209.866 197.381 209.866 197.072C209.866 196.763 209.973 196.501 210.186 196.288C210.4 196.075 210.661 195.968 210.97 195.968ZM210.97 190.08C211.29 190.08 211.557 190.187 211.77 190.4C211.984 190.613 212.09 190.875 212.09 191.184C212.09 191.493 211.984 191.76 211.77 191.984C211.557 192.197 211.29 192.304 210.97 192.304C210.661 192.304 210.4 192.197 210.186 191.984C209.973 191.76 209.866 191.493 209.866 191.184C209.866 190.875 209.973 190.613 210.186 190.4C210.4 190.187 210.661 190.08 210.97 190.08Z" fill="#0EE6B7"/>
<path d="M107.904 271.968C108.224 271.968 108.491 272.075 108.704 272.288C108.917 272.501 109.024 272.763 109.024 273.072C109.024 273.381 108.917 273.648 108.704 273.872C108.491 274.085 108.224 274.192 107.904 274.192C107.595 274.192 107.333 274.085 107.12 273.872C106.907 273.648 106.8 273.381 106.8 273.072C106.8 272.763 106.907 272.501 107.12 272.288C107.333 272.075 107.595 271.968 107.904 271.968ZM117.172 262.976L116.996 264.192H112.724V267.792H116.436V269.008H112.724V272.784H117.3V274H111.204V262.976H117.172ZM125.662 262.176V274H124.366L124.222 272.832C123.944 273.259 123.598 273.595 123.182 273.84C122.766 274.075 122.302 274.192 121.79 274.192C120.787 274.192 120.003 273.797 119.438 273.008C118.883 272.219 118.606 271.157 118.606 269.824C118.606 268.96 118.739 268.192 119.006 267.52C119.272 266.848 119.656 266.325 120.158 265.952C120.659 265.568 121.246 265.376 121.918 265.376C122.782 265.376 123.539 265.723 124.19 266.416V262L125.662 262.176ZM122.11 273.024C122.558 273.024 122.942 272.923 123.262 272.72C123.582 272.507 123.891 272.192 124.19 271.776V267.648C123.912 267.285 123.614 267.013 123.294 266.832C122.984 266.64 122.632 266.544 122.238 266.544C121.587 266.544 121.08 266.816 120.718 267.36C120.366 267.904 120.19 268.715 120.19 269.792C120.19 270.88 120.355 271.691 120.686 272.224C121.016 272.757 121.491 273.024 122.11 273.024ZM134.728 274H133.464L133.352 272.688C133.032 273.211 132.664 273.595 132.248 273.84C131.832 274.075 131.326 274.192 130.728 274.192C129.992 274.192 129.416 273.968 129 273.52C128.584 273.072 128.376 272.437 128.376 271.616V265.568H129.848V271.456C129.848 272.032 129.95 272.443 130.152 272.688C130.355 272.923 130.686 273.04 131.144 273.04C131.966 273.04 132.67 272.555 133.256 271.584V265.568H134.728V274ZM140.601 265.376C141.102 265.376 141.561 265.451 141.977 265.6C142.393 265.739 142.793 265.968 143.177 266.288L142.473 267.216C142.174 267.003 141.881 266.848 141.593 266.752C141.315 266.645 141.006 266.592 140.665 266.592C139.982 266.592 139.449 266.864 139.065 267.408C138.691 267.952 138.505 268.757 138.505 269.824C138.505 270.891 138.691 271.68 139.065 272.192C139.438 272.693 139.971 272.944 140.665 272.944C140.995 272.944 141.299 272.896 141.577 272.8C141.854 272.693 142.163 272.528 142.505 272.304L143.177 273.264C142.409 273.883 141.55 274.192 140.601 274.192C139.459 274.192 138.558 273.808 137.897 273.04C137.246 272.272 136.921 271.211 136.921 269.856C136.921 268.96 137.07 268.176 137.369 267.504C137.667 266.832 138.089 266.309 138.633 265.936C139.187 265.563 139.843 265.376 140.601 265.376ZM150.453 272.032C150.453 272.373 150.512 272.629 150.629 272.8C150.746 272.96 150.922 273.083 151.157 273.168L150.821 274.192C150.384 274.139 150.032 274.016 149.765 273.824C149.498 273.632 149.301 273.333 149.173 272.928C148.608 273.771 147.77 274.192 146.661 274.192C145.829 274.192 145.173 273.957 144.693 273.488C144.213 273.019 143.973 272.405 143.973 271.648C143.973 270.752 144.293 270.064 144.933 269.584C145.584 269.104 146.501 268.864 147.685 268.864H148.981V268.24C148.981 267.643 148.837 267.216 148.549 266.96C148.261 266.704 147.818 266.576 147.221 266.576C146.602 266.576 145.845 266.725 144.949 267.024L144.581 265.952C145.626 265.568 146.597 265.376 147.493 265.376C148.485 265.376 149.226 265.621 149.717 266.112C150.208 266.592 150.453 267.28 150.453 268.176V272.032ZM146.997 273.088C147.84 273.088 148.501 272.651 148.981 271.776V269.84H147.877C146.32 269.84 145.541 270.416 145.541 271.568C145.541 272.069 145.664 272.448 145.909 272.704C146.154 272.96 146.517 273.088 146.997 273.088ZM156.308 265.376C156.81 265.376 157.268 265.451 157.684 265.6C158.1 265.739 158.5 265.968 158.884 266.288L158.18 267.216C157.882 267.003 157.588 266.848 157.3 266.752C157.023 266.645 156.714 266.592 156.372 266.592C155.69 266.592 155.156 266.864 154.772 267.408C154.399 267.952 154.212 268.757 154.212 269.824C154.212 270.891 154.399 271.68 154.772 272.192C155.146 272.693 155.679 272.944 156.372 272.944C156.703 272.944 157.007 272.896 157.284 272.8C157.562 272.693 157.871 272.528 158.212 272.304L158.884 273.264C158.116 273.883 157.258 274.192 156.308 274.192C155.167 274.192 154.266 273.808 153.604 273.04C152.954 272.272 152.628 271.211 152.628 269.856C152.628 268.96 152.778 268.176 153.076 267.504C153.375 266.832 153.796 266.309 154.34 265.936C154.895 265.563 155.551 265.376 156.308 265.376ZM162.109 265.568V274H160.637V265.568H162.109ZM161.357 261.52C161.666 261.52 161.917 261.616 162.109 261.808C162.301 262 162.397 262.24 162.397 262.528C162.397 262.816 162.301 263.056 162.109 263.248C161.917 263.429 161.666 263.52 161.357 263.52C161.058 263.52 160.813 263.429 160.621 263.248C160.429 263.056 160.333 262.816 160.333 262.528C160.333 262.24 160.429 262 160.621 261.808C160.813 261.616 161.058 261.52 161.357 261.52ZM168.081 265.376C169.265 265.376 170.182 265.771 170.833 266.56C171.494 267.349 171.825 268.421 171.825 269.776C171.825 270.651 171.675 271.424 171.377 272.096C171.078 272.757 170.646 273.275 170.081 273.648C169.515 274.011 168.843 274.192 168.065 274.192C166.881 274.192 165.958 273.797 165.297 273.008C164.635 272.219 164.305 271.147 164.305 269.792C164.305 268.917 164.454 268.149 164.753 267.488C165.051 266.816 165.483 266.299 166.049 265.936C166.614 265.563 167.291 265.376 168.081 265.376ZM168.081 266.56C166.619 266.56 165.889 267.637 165.889 269.792C165.889 271.936 166.614 273.008 168.065 273.008C169.515 273.008 170.241 271.931 170.241 269.776C170.241 267.632 169.521 266.56 168.081 266.56ZM177.984 265.376C178.752 265.376 179.35 265.605 179.776 266.064C180.214 266.523 180.432 267.152 180.432 267.952V274H178.96V268.16C178.96 267.563 178.848 267.141 178.624 266.896C178.4 266.651 178.07 266.528 177.632 266.528C177.184 266.528 176.79 266.656 176.448 266.912C176.107 267.168 175.787 267.536 175.488 268.016V274H174.016V265.568H175.28L175.408 266.816C175.707 266.368 176.075 266.016 176.512 265.76C176.96 265.504 177.451 265.376 177.984 265.376Z" fill="#7000FF"/>
<path d="M190.058 261.76C189.514 261.76 189.124 261.845 188.89 262.016C188.655 262.176 188.538 262.453 188.538 262.848V266.672C188.538 267.216 188.442 267.611 188.25 267.856C188.058 268.091 187.754 268.277 187.338 268.416C187.764 268.565 188.068 268.752 188.25 268.976C188.442 269.2 188.538 269.584 188.538 270.128V273.952C188.538 274.347 188.655 274.624 188.89 274.784C189.124 274.955 189.514 275.04 190.058 275.04V276.176C188.991 276.176 188.239 275.989 187.802 275.616C187.364 275.253 187.146 274.645 187.146 273.792V270.24C187.146 269.792 187.06 269.477 186.89 269.296C186.73 269.115 186.442 269.024 186.026 269.024V267.808C186.442 267.808 186.73 267.712 186.89 267.52C187.06 267.328 187.146 267.008 187.146 266.56V263.008C187.146 262.155 187.364 261.547 187.802 261.184C188.239 260.811 188.991 260.624 190.058 260.624V261.76ZM245.451 308.464C245.451 309.552 245.211 310.368 244.731 310.912C244.261 311.456 243.541 311.883 242.571 312.192L242.171 311.088C242.661 310.896 243.029 310.688 243.275 310.464C243.52 310.24 243.691 309.968 243.787 309.648C243.883 309.328 243.931 308.912 243.931 308.4V298.976H245.451V308.464ZM251.046 298.784C251.782 298.784 252.411 298.891 252.934 299.104C253.456 299.307 253.963 299.627 254.454 300.064L253.622 300.992C253.206 300.661 252.795 300.421 252.39 300.272C251.995 300.112 251.568 300.032 251.11 300.032C250.534 300.032 250.059 300.165 249.686 300.432C249.312 300.699 249.126 301.088 249.126 301.6C249.126 301.92 249.19 302.192 249.318 302.416C249.446 302.629 249.68 302.827 250.022 303.008C250.374 303.189 250.88 303.381 251.542 303.584C252.235 303.797 252.811 304.027 253.27 304.272C253.728 304.517 254.096 304.859 254.374 305.296C254.662 305.723 254.806 306.267 254.806 306.928C254.806 307.568 254.646 308.133 254.326 308.624C254.016 309.115 253.563 309.499 252.966 309.776C252.379 310.053 251.68 310.192 250.87 310.192C249.344 310.192 248.096 309.717 247.126 308.768L247.958 307.84C248.406 308.203 248.859 308.48 249.318 308.672C249.776 308.853 250.288 308.944 250.854 308.944C251.536 308.944 252.102 308.779 252.55 308.448C252.998 308.107 253.222 307.616 253.222 306.976C253.222 306.613 253.152 306.315 253.014 306.08C252.875 305.835 252.635 305.616 252.294 305.424C251.963 305.232 251.478 305.04 250.838 304.848C249.707 304.507 248.88 304.096 248.358 303.616C247.835 303.136 247.574 302.485 247.574 301.664C247.574 301.109 247.718 300.613 248.006 300.176C248.304 299.739 248.715 299.397 249.238 299.152C249.771 298.907 250.374 298.784 251.046 298.784ZM264.655 298.784C265.316 298.784 265.871 298.869 266.319 299.04C266.777 299.211 267.241 299.488 267.711 299.872L266.879 300.848C266.207 300.304 265.497 300.032 264.751 300.032C263.833 300.032 263.092 300.384 262.527 301.088C261.972 301.792 261.695 302.923 261.695 304.48C261.695 305.995 261.972 307.115 262.527 307.84C263.081 308.555 263.817 308.912 264.735 308.912C265.204 308.912 265.615 308.832 265.967 308.672C266.319 308.512 266.692 308.288 267.087 308L267.839 308.96C267.497 309.312 267.06 309.605 266.527 309.84C265.993 310.075 265.38 310.192 264.687 310.192C263.791 310.192 262.991 309.973 262.287 309.536C261.593 309.088 261.049 308.437 260.655 307.584C260.271 306.72 260.079 305.685 260.079 304.48C260.079 303.275 260.281 302.245 260.687 301.392C261.092 300.528 261.641 299.877 262.335 299.44C263.028 299.003 263.801 298.784 264.655 298.784ZM272.287 301.376C273.471 301.376 274.389 301.771 275.039 302.56C275.701 303.349 276.031 304.421 276.031 305.776C276.031 306.651 275.882 307.424 275.583 308.096C275.285 308.757 274.853 309.275 274.287 309.648C273.722 310.011 273.05 310.192 272.271 310.192C271.087 310.192 270.165 309.797 269.503 309.008C268.842 308.219 268.511 307.147 268.511 305.792C268.511 304.917 268.661 304.149 268.959 303.488C269.258 302.816 269.69 302.299 270.255 301.936C270.821 301.563 271.498 301.376 272.287 301.376ZM272.287 302.56C270.826 302.56 270.095 303.637 270.095 305.792C270.095 307.936 270.821 309.008 272.271 309.008C273.722 309.008 274.447 307.931 274.447 305.776C274.447 303.632 273.727 302.56 272.287 302.56ZM284.495 310H283.231L283.119 308.688C282.799 309.211 282.431 309.595 282.015 309.84C281.599 310.075 281.092 310.192 280.495 310.192C279.759 310.192 279.183 309.968 278.767 309.52C278.351 309.072 278.143 308.437 278.143 307.616V301.568H279.615V307.456C279.615 308.032 279.716 308.443 279.919 308.688C280.122 308.923 280.452 309.04 280.911 309.04C281.732 309.04 282.436 308.555 283.023 307.584V301.568H284.495V310ZM290.96 301.376C291.258 301.376 291.536 301.408 291.792 301.472L291.52 302.912C291.264 302.848 291.018 302.816 290.784 302.816C290.261 302.816 289.84 303.008 289.52 303.392C289.2 303.776 288.949 304.373 288.768 305.184V310H287.296V301.568H288.56L288.704 303.28C288.928 302.651 289.232 302.176 289.616 301.856C290 301.536 290.448 301.376 290.96 301.376ZM295.281 301.376C295.857 301.376 296.374 301.456 296.833 301.616C297.292 301.776 297.729 302.016 298.145 302.336L297.521 303.264C297.137 303.019 296.769 302.837 296.417 302.72C296.076 302.603 295.713 302.544 295.329 302.544C294.849 302.544 294.47 302.645 294.193 302.848C293.916 303.04 293.777 303.307 293.777 303.648C293.777 303.989 293.905 304.256 294.161 304.448C294.428 304.64 294.902 304.827 295.585 305.008C296.524 305.243 297.222 305.563 297.681 305.968C298.15 306.373 298.385 306.928 298.385 307.632C298.385 308.464 298.06 309.099 297.409 309.536C296.769 309.973 295.985 310.192 295.057 310.192C293.777 310.192 292.716 309.824 291.873 309.088L292.657 308.192C293.372 308.736 294.161 309.008 295.025 309.008C295.58 309.008 296.017 308.896 296.337 308.672C296.668 308.437 296.833 308.123 296.833 307.728C296.833 307.44 296.774 307.211 296.657 307.04C296.54 306.859 296.337 306.704 296.049 306.576C295.761 306.437 295.34 306.293 294.785 306.144C293.889 305.909 293.238 305.595 292.833 305.2C292.438 304.805 292.241 304.304 292.241 303.696C292.241 303.259 292.369 302.864 292.625 302.512C292.892 302.149 293.254 301.872 293.713 301.68C294.182 301.477 294.705 301.376 295.281 301.376ZM306.59 305.536C306.59 305.781 306.579 306.032 306.558 306.288H301.182C301.246 307.216 301.481 307.899 301.886 308.336C302.291 308.773 302.814 308.992 303.454 308.992C303.859 308.992 304.233 308.933 304.574 308.816C304.915 308.699 305.273 308.512 305.646 308.256L306.286 309.136C305.39 309.84 304.409 310.192 303.342 310.192C302.169 310.192 301.251 309.808 300.59 309.04C299.939 308.272 299.614 307.216 299.614 305.872C299.614 304.997 299.753 304.224 300.03 303.552C300.318 302.869 300.723 302.336 301.246 301.952C301.779 301.568 302.403 301.376 303.118 301.376C304.238 301.376 305.097 301.744 305.694 302.48C306.291 303.216 306.59 304.235 306.59 305.536ZM305.134 305.104C305.134 304.272 304.969 303.637 304.638 303.2C304.307 302.763 303.811 302.544 303.15 302.544C301.945 302.544 301.289 303.429 301.182 305.2H305.134V305.104ZM310.989 301.376C311.565 301.376 312.082 301.456 312.541 301.616C312.999 301.776 313.437 302.016 313.853 302.336L313.229 303.264C312.845 303.019 312.477 302.837 312.125 302.72C311.783 302.603 311.421 302.544 311.037 302.544C310.557 302.544 310.178 302.645 309.901 302.848C309.623 303.04 309.485 303.307 309.485 303.648C309.485 303.989 309.613 304.256 309.869 304.448C310.135 304.64 310.61 304.827 311.293 305.008C312.231 305.243 312.93 305.563 313.389 305.968C313.858 306.373 314.093 306.928 314.093 307.632C314.093 308.464 313.767 309.099 313.117 309.536C312.477 309.973 311.693 310.192 310.765 310.192C309.485 310.192 308.423 309.824 307.581 309.088L308.365 308.192C309.079 308.736 309.869 309.008 310.733 309.008C311.287 309.008 311.725 308.896 312.045 308.672C312.375 308.437 312.541 308.123 312.541 307.728C312.541 307.44 312.482 307.211 312.365 307.04C312.247 306.859 312.045 306.704 311.757 306.576C311.469 306.437 311.047 306.293 310.493 306.144C309.597 305.909 308.946 305.595 308.541 305.2C308.146 304.805 307.949 304.304 307.949 303.696C307.949 303.259 308.077 302.864 308.333 302.512C308.599 302.149 308.962 301.872 309.421 301.68C309.89 301.477 310.413 301.376 310.989 301.376ZM316.313 307.968C316.633 307.968 316.9 308.075 317.113 308.288C317.327 308.501 317.433 308.763 317.433 309.072C317.433 309.403 317.337 309.781 317.145 310.208L316.073 312.656H315.017L315.657 310C315.519 309.893 315.407 309.76 315.321 309.6C315.247 309.44 315.209 309.264 315.209 309.072C315.209 308.763 315.316 308.501 315.529 308.288C315.743 308.075 316.004 307.968 316.313 307.968ZM316.313 302.08C316.633 302.08 316.9 302.187 317.113 302.4C317.327 302.613 317.433 302.875 317.433 303.184C317.433 303.493 317.327 303.76 317.113 303.984C316.9 304.197 316.633 304.304 316.313 304.304C316.004 304.304 315.743 304.197 315.529 303.984C315.316 303.76 315.209 303.493 315.209 303.184C315.209 302.875 315.316 302.613 315.529 302.4C315.743 302.187 316.004 302.08 316.313 302.08ZM192.242 316.784C192.904 316.784 193.458 316.869 193.906 317.04C194.365 317.211 194.829 317.488 195.298 317.872L194.466 318.848C193.794 318.304 193.085 318.032 192.338 318.032C191.421 318.032 190.68 318.384 190.114 319.088C189.56 319.792 189.282 320.923 189.282 322.48C189.282 323.995 189.56 325.115 190.114 325.84C190.669 326.555 191.405 326.912 192.322 326.912C192.792 326.912 193.202 326.832 193.554 326.672C193.906 326.512 194.28 326.288 194.674 326L195.426 326.96C195.085 327.312 194.648 327.605 194.114 327.84C193.581 328.075 192.968 328.192 192.274 328.192C191.378 328.192 190.578 327.973 189.874 327.536C189.181 327.088 188.637 326.437 188.242 325.584C187.858 324.72 187.666 323.685 187.666 322.48C187.666 321.275 187.869 320.245 188.274 319.392C188.68 318.528 189.229 317.877 189.922 317.44C190.616 317.003 191.389 316.784 192.242 316.784ZM199.663 316.784C200.399 316.784 201.028 316.891 201.551 317.104C202.074 317.307 202.58 317.627 203.071 318.064L202.239 318.992C201.823 318.661 201.412 318.421 201.007 318.272C200.612 318.112 200.186 318.032 199.727 318.032C199.151 318.032 198.676 318.165 198.303 318.432C197.93 318.699 197.743 319.088 197.743 319.6C197.743 319.92 197.807 320.192 197.935 320.416C198.063 320.629 198.298 320.827 198.639 321.008C198.991 321.189 199.498 321.381 200.159 321.584C200.852 321.797 201.428 322.027 201.887 322.272C202.346 322.517 202.714 322.859 202.991 323.296C203.279 323.723 203.423 324.267 203.423 324.928C203.423 325.568 203.263 326.133 202.943 326.624C202.634 327.115 202.18 327.499 201.583 327.776C200.996 328.053 200.298 328.192 199.487 328.192C197.962 328.192 196.714 327.717 195.743 326.768L196.575 325.84C197.023 326.203 197.476 326.48 197.935 326.672C198.394 326.853 198.906 326.944 199.471 326.944C200.154 326.944 200.719 326.779 201.167 326.448C201.615 326.107 201.839 325.616 201.839 324.976C201.839 324.613 201.77 324.315 201.631 324.08C201.492 323.835 201.252 323.616 200.911 323.424C200.58 323.232 200.095 323.04 199.455 322.848C198.324 322.507 197.498 322.096 196.975 321.616C196.452 321.136 196.191 320.485 196.191 319.664C196.191 319.109 196.335 318.613 196.623 318.176C196.922 317.739 197.332 317.397 197.855 317.152C198.388 316.907 198.991 316.784 199.663 316.784ZM207.954 316.784C208.69 316.784 209.32 316.891 209.842 317.104C210.365 317.307 210.872 317.627 211.362 318.064L210.53 318.992C210.114 318.661 209.704 318.421 209.298 318.272C208.904 318.112 208.477 318.032 208.018 318.032C207.442 318.032 206.968 318.165 206.594 318.432C206.221 318.699 206.034 319.088 206.034 319.6C206.034 319.92 206.098 320.192 206.226 320.416C206.354 320.629 206.589 320.827 206.93 321.008C207.282 321.189 207.789 321.381 208.45 321.584C209.144 321.797 209.72 322.027 210.178 322.272C210.637 322.517 211.005 322.859 211.282 323.296C211.57 323.723 211.714 324.267 211.714 324.928C211.714 325.568 211.554 326.133 211.234 326.624C210.925 327.115 210.472 327.499 209.874 327.776C209.288 328.053 208.589 328.192 207.778 328.192C206.253 328.192 205.005 327.717 204.034 326.768L204.866 325.84C205.314 326.203 205.768 326.48 206.226 326.672C206.685 326.853 207.197 326.944 207.762 326.944C208.445 326.944 209.01 326.779 209.458 326.448C209.906 326.107 210.13 325.616 210.13 324.976C210.13 324.613 210.061 324.315 209.922 324.08C209.784 323.835 209.544 323.616 209.202 323.424C208.872 323.232 208.386 323.04 207.746 322.848C206.616 322.507 205.789 322.096 205.266 321.616C204.744 321.136 204.482 320.485 204.482 319.664C204.482 319.109 204.626 318.613 204.914 318.176C205.213 317.739 205.624 317.397 206.146 317.152C206.68 316.907 207.282 316.784 207.954 316.784ZM221.563 316.784C222.225 316.784 222.779 316.869 223.227 317.04C223.686 317.211 224.15 317.488 224.619 317.872L223.787 318.848C223.115 318.304 222.406 318.032 221.659 318.032C220.742 318.032 220.001 318.384 219.435 319.088C218.881 319.792 218.603 320.923 218.603 322.48C218.603 323.995 218.881 325.115 219.435 325.84C219.99 326.555 220.726 326.912 221.643 326.912C222.113 326.912 222.523 326.832 222.875 326.672C223.227 326.512 223.601 326.288 223.995 326L224.747 326.96C224.406 327.312 223.969 327.605 223.435 327.84C222.902 328.075 222.289 328.192 221.595 328.192C220.699 328.192 219.899 327.973 219.195 327.536C218.502 327.088 217.958 326.437 217.563 325.584C217.179 324.72 216.987 323.685 216.987 322.48C216.987 321.275 217.19 320.245 217.595 319.392C218.001 318.528 218.55 317.877 219.243 317.44C219.937 317.003 220.71 316.784 221.563 316.784ZM229.196 319.376C230.38 319.376 231.297 319.771 231.948 320.56C232.609 321.349 232.94 322.421 232.94 323.776C232.94 324.651 232.791 325.424 232.492 326.096C232.193 326.757 231.761 327.275 231.196 327.648C230.631 328.011 229.959 328.192 229.18 328.192C227.996 328.192 227.073 327.797 226.412 327.008C225.751 326.219 225.42 325.147 225.42 323.792C225.42 322.917 225.569 322.149 225.868 321.488C226.167 320.816 226.599 320.299 227.164 319.936C227.729 319.563 228.407 319.376 229.196 319.376ZM229.196 320.56C227.735 320.56 227.004 321.637 227.004 323.792C227.004 325.936 227.729 327.008 229.18 327.008C230.631 327.008 231.356 325.931 231.356 323.776C231.356 321.632 230.636 320.56 229.196 320.56ZM241.404 328H240.14L240.028 326.688C239.708 327.211 239.34 327.595 238.924 327.84C238.508 328.075 238.001 328.192 237.404 328.192C236.668 328.192 236.092 327.968 235.676 327.52C235.26 327.072 235.052 326.437 235.052 325.616V319.568H236.524V325.456C236.524 326.032 236.625 326.443 236.828 326.688C237.031 326.923 237.361 327.04 237.82 327.04C238.641 327.04 239.345 326.555 239.932 325.584V319.568H241.404V328ZM247.868 319.376C248.167 319.376 248.444 319.408 248.7 319.472L248.428 320.912C248.172 320.848 247.927 320.816 247.692 320.816C247.17 320.816 246.748 321.008 246.428 321.392C246.108 321.776 245.858 322.373 245.676 323.184V328H244.204V319.568H245.468L245.612 321.28C245.836 320.651 246.14 320.176 246.524 319.856C246.908 319.536 247.356 319.376 247.868 319.376ZM252.19 319.376C252.766 319.376 253.283 319.456 253.742 319.616C254.201 319.776 254.638 320.016 255.054 320.336L254.43 321.264C254.046 321.019 253.678 320.837 253.326 320.72C252.985 320.603 252.622 320.544 252.238 320.544C251.758 320.544 251.379 320.645 251.102 320.848C250.825 321.04 250.686 321.307 250.686 321.648C250.686 321.989 250.814 322.256 251.07 322.448C251.337 322.64 251.811 322.827 252.494 323.008C253.433 323.243 254.131 323.563 254.59 323.968C255.059 324.373 255.294 324.928 255.294 325.632C255.294 326.464 254.969 327.099 254.318 327.536C253.678 327.973 252.894 328.192 251.966 328.192C250.686 328.192 249.625 327.824 248.782 327.088L249.566 326.192C250.281 326.736 251.07 327.008 251.934 327.008C252.489 327.008 252.926 326.896 253.246 326.672C253.577 326.437 253.742 326.123 253.742 325.728C253.742 325.44 253.683 325.211 253.566 325.04C253.449 324.859 253.246 324.704 252.958 324.576C252.67 324.437 252.249 324.293 251.694 324.144C250.798 323.909 250.147 323.595 249.742 323.2C249.347 322.805 249.15 322.304 249.15 321.696C249.15 321.259 249.278 320.864 249.534 320.512C249.801 320.149 250.163 319.872 250.622 319.68C251.091 319.477 251.614 319.376 252.19 319.376ZM263.499 323.536C263.499 323.781 263.488 324.032 263.467 324.288H258.091C258.155 325.216 258.389 325.899 258.795 326.336C259.2 326.773 259.723 326.992 260.363 326.992C260.768 326.992 261.141 326.933 261.483 326.816C261.824 326.699 262.181 326.512 262.555 326.256L263.195 327.136C262.299 327.84 261.317 328.192 260.251 328.192C259.077 328.192 258.16 327.808 257.499 327.04C256.848 326.272 256.523 325.216 256.523 323.872C256.523 322.997 256.661 322.224 256.939 321.552C257.227 320.869 257.632 320.336 258.155 319.952C258.688 319.568 259.312 319.376 260.027 319.376C261.147 319.376 262.005 319.744 262.603 320.48C263.2 321.216 263.499 322.235 263.499 323.536ZM262.043 323.104C262.043 322.272 261.877 321.637 261.547 321.2C261.216 320.763 260.72 320.544 260.059 320.544C258.853 320.544 258.197 321.429 258.091 323.2H262.043V323.104ZM267.897 319.376C268.473 319.376 268.991 319.456 269.449 319.616C269.908 319.776 270.345 320.016 270.761 320.336L270.137 321.264C269.753 321.019 269.385 320.837 269.033 320.72C268.692 320.603 268.329 320.544 267.945 320.544C267.465 320.544 267.087 320.645 266.809 320.848C266.532 321.04 266.393 321.307 266.393 321.648C266.393 321.989 266.521 322.256 266.777 322.448C267.044 322.64 267.519 322.827 268.201 323.008C269.14 323.243 269.839 323.563 270.297 323.968C270.767 324.373 271.001 324.928 271.001 325.632C271.001 326.464 270.676 327.099 270.025 327.536C269.385 327.973 268.601 328.192 267.673 328.192C266.393 328.192 265.332 327.824 264.489 327.088L265.273 326.192C265.988 326.736 266.777 327.008 267.641 327.008C268.196 327.008 268.633 326.896 268.953 326.672C269.284 326.437 269.449 326.123 269.449 325.728C269.449 325.44 269.391 325.211 269.273 325.04C269.156 324.859 268.953 324.704 268.665 324.576C268.377 324.437 267.956 324.293 267.401 324.144C266.505 323.909 265.855 323.595 265.449 323.2C265.055 322.805 264.857 322.304 264.857 321.696C264.857 321.259 264.985 320.864 265.241 320.512C265.508 320.149 265.871 319.872 266.329 319.68C266.799 319.477 267.321 319.376 267.897 319.376ZM273.222 325.968C273.542 325.968 273.809 326.075 274.022 326.288C274.235 326.501 274.342 326.763 274.342 327.072C274.342 327.403 274.246 327.781 274.054 328.208L272.982 330.656H271.926L272.566 328C272.427 327.893 272.315 327.76 272.23 327.6C272.155 327.44 272.118 327.264 272.118 327.072C272.118 326.763 272.225 326.501 272.438 326.288C272.651 326.075 272.913 325.968 273.222 325.968ZM273.222 320.08C273.542 320.08 273.809 320.187 274.022 320.4C274.235 320.613 274.342 320.875 274.342 321.184C274.342 321.493 274.235 321.76 274.022 321.984C273.809 322.197 273.542 322.304 273.222 322.304C272.913 322.304 272.651 322.197 272.438 321.984C272.225 321.76 272.118 321.493 272.118 321.184C272.118 320.875 272.225 320.613 272.438 320.4C272.651 320.187 272.913 320.08 273.222 320.08ZM106.72 350.624C107.787 350.624 108.539 350.811 108.976 351.184C109.413 351.547 109.632 352.155 109.632 353.008V356.56C109.632 357.008 109.712 357.328 109.872 357.52C110.043 357.712 110.336 357.808 110.752 357.808V359.024C110.336 359.024 110.043 359.115 109.872 359.296C109.712 359.477 109.632 359.792 109.632 360.24V363.792C109.632 364.645 109.413 365.253 108.976 365.616C108.539 365.989 107.787 366.176 106.72 366.176V365.04C107.264 365.04 107.653 364.955 107.888 364.784C108.123 364.624 108.24 364.347 108.24 363.952V360.128C108.24 359.584 108.331 359.2 108.512 358.976C108.704 358.752 109.013 358.565 109.44 358.416C109.024 358.277 108.72 358.091 108.528 357.856C108.336 357.611 108.24 357.216 108.24 356.672V352.848C108.24 352.453 108.123 352.176 107.888 352.016C107.653 351.845 107.264 351.76 106.72 351.76V350.624Z" fill="white"/>
<path d="M131.566 310V298.976H137.422L137.246 300.192H133.086V303.952H136.686V305.152H133.086V310H131.566ZM142.207 301.376C142.506 301.376 142.783 301.408 143.039 301.472L142.767 302.912C142.511 302.848 142.266 302.816 142.031 302.816C141.508 302.816 141.087 303.008 140.767 303.392C140.447 303.776 140.196 304.373 140.015 305.184V310H138.543V301.568H139.807L139.951 303.28C140.175 302.651 140.479 302.176 140.863 301.856C141.247 301.536 141.695 301.376 142.207 301.376ZM150.359 305.536C150.359 305.781 150.348 306.032 150.327 306.288H144.951C145.015 307.216 145.249 307.899 145.655 308.336C146.06 308.773 146.583 308.992 147.223 308.992C147.628 308.992 148.001 308.933 148.343 308.816C148.684 308.699 149.041 308.512 149.415 308.256L150.055 309.136C149.159 309.84 148.177 310.192 147.111 310.192C145.937 310.192 145.02 309.808 144.359 309.04C143.708 308.272 143.383 307.216 143.383 305.872C143.383 304.997 143.521 304.224 143.799 303.552C144.087 302.869 144.492 302.336 145.015 301.952C145.548 301.568 146.172 301.376 146.887 301.376C148.007 301.376 148.865 301.744 149.463 302.48C150.06 303.216 150.359 304.235 150.359 305.536ZM148.903 305.104C148.903 304.272 148.737 303.637 148.407 303.2C148.076 302.763 147.58 302.544 146.919 302.544C145.713 302.544 145.057 303.429 144.951 305.2H148.903V305.104ZM158.837 305.536C158.837 305.781 158.827 306.032 158.805 306.288H153.429C153.493 307.216 153.728 307.899 154.133 308.336C154.539 308.773 155.061 308.992 155.701 308.992C156.107 308.992 156.48 308.933 156.821 308.816C157.163 308.699 157.52 308.512 157.893 308.256L158.533 309.136C157.637 309.84 156.656 310.192 155.589 310.192C154.416 310.192 153.499 309.808 152.837 309.04C152.187 308.272 151.861 307.216 151.861 305.872C151.861 304.997 152 304.224 152.277 303.552C152.565 302.869 152.971 302.336 153.493 301.952C154.027 301.568 154.651 301.376 155.365 301.376C156.485 301.376 157.344 301.744 157.941 302.48C158.539 303.216 158.837 304.235 158.837 305.536ZM157.381 305.104C157.381 304.272 157.216 303.637 156.885 303.2C156.555 302.763 156.059 302.544 155.397 302.544C154.192 302.544 153.536 303.429 153.429 305.2H157.381V305.104ZM164.884 298.784C165.545 298.784 166.1 298.869 166.548 299.04C167.007 299.211 167.471 299.488 167.94 299.872L167.108 300.848C166.436 300.304 165.727 300.032 164.98 300.032C164.063 300.032 163.321 300.384 162.756 301.088C162.201 301.792 161.924 302.923 161.924 304.48C161.924 305.995 162.201 307.115 162.756 307.84C163.311 308.555 164.047 308.912 164.964 308.912C165.433 308.912 165.844 308.832 166.196 308.672C166.548 308.512 166.921 308.288 167.316 308L168.068 308.96C167.727 309.312 167.289 309.605 166.756 309.84C166.223 310.075 165.609 310.192 164.916 310.192C164.02 310.192 163.22 309.973 162.516 309.536C161.823 309.088 161.279 308.437 160.884 307.584C160.5 306.72 160.308 305.685 160.308 304.48C160.308 303.275 160.511 302.245 160.916 301.392C161.321 300.528 161.871 299.877 162.564 299.44C163.257 299.003 164.031 298.784 164.884 298.784ZM172.517 301.376C173.701 301.376 174.618 301.771 175.269 302.56C175.93 303.349 176.261 304.421 176.261 305.776C176.261 306.651 176.111 307.424 175.813 308.096C175.514 308.757 175.082 309.275 174.517 309.648C173.951 310.011 173.279 310.192 172.501 310.192C171.317 310.192 170.394 309.797 169.733 309.008C169.071 308.219 168.741 307.147 168.741 305.792C168.741 304.917 168.89 304.149 169.189 303.488C169.487 302.816 169.919 302.299 170.485 301.936C171.05 301.563 171.727 301.376 172.517 301.376ZM172.517 302.56C171.055 302.56 170.325 303.637 170.325 305.792C170.325 307.936 171.05 309.008 172.501 309.008C173.951 309.008 174.677 307.931 174.677 305.776C174.677 303.632 173.957 302.56 172.517 302.56ZM184.981 298.176V310H183.685L183.541 308.832C183.263 309.259 182.917 309.595 182.501 309.84C182.085 310.075 181.621 310.192 181.109 310.192C180.106 310.192 179.322 309.797 178.757 309.008C178.202 308.219 177.925 307.157 177.925 305.824C177.925 304.96 178.058 304.192 178.325 303.52C178.591 302.848 178.975 302.325 179.477 301.952C179.978 301.568 180.565 301.376 181.237 301.376C182.101 301.376 182.858 301.723 183.509 302.416V298L184.981 298.176ZM181.429 309.024C181.877 309.024 182.261 308.923 182.581 308.72C182.901 308.507 183.21 308.192 183.509 307.776V303.648C183.231 303.285 182.933 303.013 182.613 302.832C182.303 302.64 181.951 302.544 181.557 302.544C180.906 302.544 180.399 302.816 180.037 303.36C179.685 303.904 179.509 304.715 179.509 305.792C179.509 306.88 179.674 307.691 180.005 308.224C180.335 308.757 180.81 309.024 181.429 309.024ZM194.143 305.536C194.143 305.781 194.132 306.032 194.111 306.288H188.735C188.799 307.216 189.034 307.899 189.439 308.336C189.844 308.773 190.367 308.992 191.007 308.992C191.412 308.992 191.786 308.933 192.127 308.816C192.468 308.699 192.826 308.512 193.199 308.256L193.839 309.136C192.943 309.84 191.962 310.192 190.895 310.192C189.722 310.192 188.804 309.808 188.143 309.04C187.492 308.272 187.167 307.216 187.167 305.872C187.167 304.997 187.306 304.224 187.583 303.552C187.871 302.869 188.276 302.336 188.799 301.952C189.332 301.568 189.956 301.376 190.671 301.376C191.791 301.376 192.65 301.744 193.247 302.48C193.844 303.216 194.143 304.235 194.143 305.536ZM192.687 305.104C192.687 304.272 192.522 303.637 192.191 303.2C191.86 302.763 191.364 302.544 190.703 302.544C189.498 302.544 188.842 303.429 188.735 305.2H192.687V305.104ZM200.19 298.784C200.851 298.784 201.406 298.869 201.854 299.04C202.312 299.211 202.776 299.488 203.246 299.872L202.414 300.848C201.742 300.304 201.032 300.032 200.286 300.032C199.368 300.032 198.627 300.384 198.062 301.088C197.507 301.792 197.23 302.923 197.23 304.48C197.23 305.995 197.507 307.115 198.062 307.84C198.616 308.555 199.352 308.912 200.27 308.912C200.739 308.912 201.15 308.832 201.502 308.672C201.854 308.512 202.227 308.288 202.622 308L203.374 308.96C203.032 309.312 202.595 309.605 202.062 309.84C201.528 310.075 200.915 310.192 200.222 310.192C199.326 310.192 198.526 309.973 197.822 309.536C197.128 309.088 196.584 308.437 196.19 307.584C195.806 306.72 195.614 305.685 195.614 304.48C195.614 303.275 195.816 302.245 196.222 301.392C196.627 300.528 197.176 299.877 197.87 299.44C198.563 299.003 199.336 298.784 200.19 298.784ZM210.491 308.032C210.491 308.373 210.549 308.629 210.667 308.8C210.784 308.96 210.96 309.083 211.195 309.168L210.859 310.192C210.421 310.139 210.069 310.016 209.803 309.824C209.536 309.632 209.339 309.333 209.211 308.928C208.645 309.771 207.808 310.192 206.699 310.192C205.867 310.192 205.211 309.957 204.731 309.488C204.251 309.019 204.011 308.405 204.011 307.648C204.011 306.752 204.331 306.064 204.971 305.584C205.621 305.104 206.539 304.864 207.723 304.864H209.019V304.24C209.019 303.643 208.875 303.216 208.587 302.96C208.299 302.704 207.856 302.576 207.259 302.576C206.64 302.576 205.883 302.725 204.987 303.024L204.619 301.952C205.664 301.568 206.635 301.376 207.531 301.376C208.523 301.376 209.264 301.621 209.755 302.112C210.245 302.592 210.491 303.28 210.491 304.176V308.032ZM207.035 309.088C207.877 309.088 208.539 308.651 209.019 307.776V305.84H207.915C206.357 305.84 205.579 306.416 205.579 307.568C205.579 308.069 205.701 308.448 205.947 308.704C206.192 308.96 206.555 309.088 207.035 309.088ZM221.738 301.376C222.431 301.376 222.986 301.611 223.402 302.08C223.818 302.539 224.026 303.163 224.026 303.952V310H222.554V304.16C222.554 303.072 222.159 302.528 221.37 302.528C220.954 302.528 220.602 302.651 220.314 302.896C220.026 303.131 219.716 303.504 219.386 304.016V310H217.914V304.16C217.914 303.072 217.519 302.528 216.73 302.528C216.303 302.528 215.946 302.651 215.658 302.896C215.37 303.141 215.066 303.515 214.746 304.016V310H213.274V301.568H214.538L214.666 302.8C215.295 301.851 216.106 301.376 217.098 301.376C217.62 301.376 218.063 301.509 218.426 301.776C218.799 302.043 219.066 302.416 219.226 302.896C219.556 302.405 219.919 302.032 220.314 301.776C220.719 301.509 221.194 301.376 221.738 301.376ZM230.624 301.376C231.702 301.376 232.491 301.76 232.992 302.528C233.494 303.296 233.744 304.379 233.744 305.776C233.744 307.099 233.456 308.165 232.88 308.976C232.304 309.787 231.488 310.192 230.432 310.192C229.494 310.192 228.758 309.872 228.224 309.232V313.232L226.752 313.408V301.568H228.016L228.128 302.704C228.438 302.277 228.811 301.952 229.248 301.728C229.686 301.493 230.144 301.376 230.624 301.376ZM230.08 308.992C231.467 308.992 232.16 307.92 232.16 305.776C232.16 303.621 231.526 302.544 230.256 302.544C229.84 302.544 229.462 302.667 229.12 302.912C228.779 303.157 228.48 303.472 228.224 303.856V307.968C228.438 308.299 228.704 308.555 229.024 308.736C229.344 308.907 229.696 308.992 230.08 308.992ZM236.396 307.968C236.716 307.968 236.983 308.075 237.196 308.288C237.41 308.501 237.516 308.763 237.516 309.072C237.516 309.381 237.41 309.648 237.196 309.872C236.983 310.085 236.716 310.192 236.396 310.192C236.087 310.192 235.826 310.085 235.612 309.872C235.399 309.648 235.292 309.381 235.292 309.072C235.292 308.763 235.399 308.501 235.612 308.288C235.826 308.075 236.087 307.968 236.396 307.968ZM236.396 302.08C236.716 302.08 236.983 302.187 237.196 302.4C237.41 302.613 237.516 302.875 237.516 303.184C237.516 303.493 237.41 303.76 237.196 303.984C236.983 304.197 236.716 304.304 236.396 304.304C236.087 304.304 235.826 304.197 235.612 303.984C235.399 303.76 235.292 303.493 235.292 303.184C235.292 302.875 235.399 302.613 235.612 302.4C235.826 302.187 236.087 302.08 236.396 302.08ZM139.118 324.464C139.118 325.2 138.964 325.851 138.654 326.416C138.356 326.971 137.913 327.408 137.326 327.728C136.75 328.037 136.057 328.192 135.246 328.192C134.02 328.192 133.07 327.856 132.398 327.184C131.737 326.501 131.406 325.595 131.406 324.464V316.976H132.926V324.352C132.926 325.205 133.118 325.845 133.502 326.272C133.886 326.699 134.468 326.912 135.246 326.912C136.036 326.912 136.622 326.704 137.006 326.288C137.39 325.861 137.582 325.216 137.582 324.352V316.976H139.118V324.464ZM148.368 316.176V328H147.072L146.928 326.832C146.651 327.259 146.304 327.595 145.888 327.84C145.472 328.075 145.008 328.192 144.496 328.192C143.493 328.192 142.709 327.797 142.144 327.008C141.589 326.219 141.312 325.157 141.312 323.824C141.312 322.96 141.445 322.192 141.712 321.52C141.979 320.848 142.363 320.325 142.864 319.952C143.365 319.568 143.952 319.376 144.624 319.376C145.488 319.376 146.245 319.723 146.896 320.416V316L148.368 316.176ZM144.816 327.024C145.264 327.024 145.648 326.923 145.968 326.72C146.288 326.507 146.597 326.192 146.896 325.776V321.648C146.619 321.285 146.32 321.013 146 320.832C145.691 320.64 145.339 320.544 144.944 320.544C144.293 320.544 143.787 320.816 143.424 321.36C143.072 321.904 142.896 322.715 142.896 323.792C142.896 324.88 143.061 325.691 143.392 326.224C143.723 326.757 144.197 327.024 144.816 327.024ZM157.531 323.536C157.531 323.781 157.52 324.032 157.499 324.288H152.123C152.187 325.216 152.421 325.899 152.827 326.336C153.232 326.773 153.755 326.992 154.395 326.992C154.8 326.992 155.173 326.933 155.515 326.816C155.856 326.699 156.213 326.512 156.587 326.256L157.227 327.136C156.331 327.84 155.349 328.192 154.283 328.192C153.109 328.192 152.192 327.808 151.531 327.04C150.88 326.272 150.555 325.216 150.555 323.872C150.555 322.997 150.693 322.224 150.971 321.552C151.259 320.869 151.664 320.336 152.187 319.952C152.72 319.568 153.344 319.376 154.059 319.376C155.179 319.376 156.037 319.744 156.635 320.48C157.232 321.216 157.531 322.235 157.531 323.536ZM156.075 323.104C156.075 322.272 155.909 321.637 155.579 321.2C155.248 320.763 154.752 320.544 154.091 320.544C152.885 320.544 152.229 321.429 152.123 323.2H156.075V323.104ZM168.105 319.376C168.799 319.376 169.353 319.611 169.769 320.08C170.185 320.539 170.393 321.163 170.393 321.952V328H168.921V322.16C168.921 321.072 168.527 320.528 167.737 320.528C167.321 320.528 166.969 320.651 166.681 320.896C166.393 321.131 166.084 321.504 165.753 322.016V328H164.281V322.16C164.281 321.072 163.887 320.528 163.097 320.528C162.671 320.528 162.313 320.651 162.025 320.896C161.737 321.141 161.433 321.515 161.113 322.016V328H159.641V319.568H160.905L161.033 320.8C161.663 319.851 162.473 319.376 163.465 319.376C163.988 319.376 164.431 319.509 164.793 319.776C165.167 320.043 165.433 320.416 165.593 320.896C165.924 320.405 166.287 320.032 166.681 319.776C167.087 319.509 167.561 319.376 168.105 319.376ZM176.387 328.048C176.056 329.029 175.592 329.803 174.995 330.368C174.408 330.944 173.565 331.291 172.467 331.408L172.307 330.256C172.861 330.16 173.304 330.021 173.635 329.84C173.965 329.659 174.227 329.424 174.419 329.136C174.621 328.859 174.808 328.48 174.979 328H174.483L171.651 319.568H173.219L175.475 326.928L177.683 319.568H179.203L176.387 328.048ZM181.092 325.968C181.412 325.968 181.679 326.075 181.892 326.288C182.105 326.501 182.212 326.763 182.212 327.072C182.212 327.381 182.105 327.648 181.892 327.872C181.679 328.085 181.412 328.192 181.092 328.192C180.783 328.192 180.521 328.085 180.308 327.872C180.095 327.648 179.988 327.381 179.988 327.072C179.988 326.763 180.095 326.501 180.308 326.288C180.521 326.075 180.783 325.968 181.092 325.968ZM181.092 320.08C181.412 320.08 181.679 320.187 181.892 320.4C182.105 320.613 182.212 320.875 182.212 321.184C182.212 321.493 182.105 321.76 181.892 321.984C181.679 322.197 181.412 322.304 181.092 322.304C180.783 322.304 180.521 322.197 180.308 321.984C180.095 321.76 179.988 321.493 179.988 321.184C179.988 320.875 180.095 320.613 180.308 320.4C180.521 320.187 180.783 320.08 181.092 320.08Z" fill="#0EE6B7"/>
<path d="M15 0.5H847C855.008 0.5 861.5 6.99187 861.5 15V499.5H0.5V15C0.5 6.99186 6.99187 0.5 15 0.5Z" stroke="#4A4A4A"/>
</g>
</svg>
